<?xml version="1.0" standalone="no"?>
<!DOCTYPE svg PUBLIC "-//W3C//DTD SVG 1.1//EN" "http://www.w3.org/Graphics/SVG/1.1/DTD/svg11.dtd" >
<svg>
<metadata>
Created by FontForge 20090914 at Thu Jan 15 00:38:21 2015
 By www-data
Copyright (c) 2000 The Hoefler Type Foundry, Inc., dba Hoefler &#38; Frere-Jones. All Rights Reserved.
</metadata>
<defs>
<font id="GothamPro-Medium" horiz-adv-x="1024" >
  <font-face 
    font-family="Gotham Pro Medium"
    font-weight="400"
    font-stretch="normal"
    units-per-em="2048"
    panose-1="2 0 6 3 3 0 0 2 0 4"
    ascent="1638"
    descent="-410"
    x-height="1081"
    cap-height="1434"
    bbox="-51 -338 2241 1888"
    underline-thickness="40"
    underline-position="-231"
    unicode-range="U+000D-U+E000"
  />
<missing-glyph horiz-adv-x="748" 
d="M68 0v1365h544v-1365h-544zM136 68h408v1229h-408v-1229z" />
    <glyph glyph-name=".notdef" horiz-adv-x="748" 
d="M68 0v1365h544v-1365h-544zM136 68h408v1229h-408v-1229z" />
    <glyph glyph-name="glyph1" horiz-adv-x="2048" 
 />
    <glyph glyph-name="glyph1" horiz-adv-x="2048" 
 />
    <glyph glyph-name="uni000D" unicode="&#xd;" horiz-adv-x="2048" 
 />
    <glyph glyph-name="space" unicode=" " horiz-adv-x="614" 
 />
    <glyph glyph-name="exclam" unicode="!" horiz-adv-x="618" 
d="M164 1362v72h291v-72l-76 -909h-137zM174 0v281h272v-281h-272z" />
    <glyph glyph-name="quotedbl" unicode="&#x22;" horiz-adv-x="997" 
d="M123 821l47 613h281v-11l-199 -602h-129zM571 821l50 613h280v-11l-201 -602h-129z" />
    <glyph glyph-name="numbersign" unicode="#" horiz-adv-x="1433" 
d="M80 330v213h221l59 356h-204v213h241l56 322h219l-56 -322h336l54 322h219l-56 -322h183v-213h-219l-60 -356h205v-213h-242l-57 -330h-219l57 330h-336l-55 -330h-219l57 330h-184zM518 543h336l61 356h-335z" />
    <glyph glyph-name="dollar" unicode="$" horiz-adv-x="1314" 
d="M100 207l130.999 185.999c124 -100 244.333 -158.667 361 -176v401c-153.333 40 -264.666 92.167 -333.999 156.5s-104 153.5 -104 267.5c0 109.333 40.333 199.5 121 270.5s185.667 111.5 315 121.5v118h166v-122c144 -17.333 274.333 -69.333 391 -156l-115 -193
c-89.333 67.333 -182 111 -278 131v-389c156 -39.333 269 -92.333 339 -159s105 -155.667 105 -267c0 -110 -40.667 -200.333 -122 -271s-188 -112 -320 -124v-203h-166v205c-182.667 20.667 -346 88.334 -490 203.001zM394.999 1053c0 -44.667 14 -81.3311 42 -109.998
s79.667 -54.334 155 -77.001v361c-63.333 -4.66699 -112 -22.834 -146 -54.501s-51 -71.5 -51 -119.5zM753.999 209.002c64 4.66699 113.667 22.6689 149 54.002s53 72.666 53 123.999c0 47.333 -14.5 85.666 -43.5 114.999s-81.833 55.333 -158.5 78v-371z" />
    <glyph glyph-name="percent" unicode="%" horiz-adv-x="1738" 
d="M98 1083c0 102 31.833 188.666 95.5 259.999s145.167 107 244.5 107c98.667 0 179.334 -35.5 242.001 -106.5s94 -157.833 94 -260.5c0 -102 -31.833 -188.5 -95.5 -259.5s-145.167 -106.5 -244.5 -106.5c-98.667 0 -179.334 35.333 -242.001 106
s-94 157.334 -94 260.001zM244 -0.000976562l1048 1434h203l-1049 -1434h-202zM281 1083c0 -59.333 14.834 -109 44.501 -149s67.167 -60 112.5 -60c46.667 0 84 20 112 60s42 89.667 42 149c0 58 -15 107.333 -45 148s-67.667 61 -113 61
c-46.667 0 -83.834 -20 -111.501 -60s-41.5 -89.667 -41.5 -149zM965.001 349.999c0 102 31.833 188.666 95.5 259.999s145.167 107 244.5 107c98.667 0 179.167 -35.5 241.5 -106.5s93.5 -157.833 93.5 -260.5c0 -102 -31.833 -188.5 -95.5 -259.5
s-145.167 -106.5 -244.5 -106.5c-98.667 0 -179.167 35.333 -241.5 106s-93.5 157.334 -93.5 260.001zM1147 349.998c0 -59.333 15 -109 45 -149s67.667 -60 113 -60c46.667 0 83.834 20 111.501 60s41.5 89.667 41.5 149c0 58 -15 107.333 -45 148s-67.667 61 -113 61
c-46.667 0 -83.834 -20 -111.501 -60s-41.5 -89.667 -41.5 -149z" />
    <glyph glyph-name="ampersand" unicode="&#x26;" horiz-adv-x="1425" 
d="M80 393c0 181.333 101.669 315.333 305.002 402c-41.333 52.667 -71.5 102.834 -90.5 150.501s-28.5 98.5 -28.5 152.5c0 100 37.667 185 113 255s175 105 299 105c112 0 203.5 -33.333 274.5 -100s106.5 -150 106.5 -250c0 -168.667 -105.333 -293 -316 -373l246 -250
c53.333 79.333 104.666 171.666 153.999 276.999l190 -100c-66 -132.667 -130.667 -242 -194 -328l225 -230l-186 -133l-191 195c-132.667 -124 -279.334 -186 -440.001 -186c-135.333 0 -247 37.833 -335 113.5s-132 175.5 -132 299.5zM334.002 397
c0 -60.667 22.501 -110.667 67.501 -150s102.167 -59 171.5 -59c93.333 0 183.666 41.667 270.999 125l-320 326c-64 -27.333 -111.667 -62 -143 -104s-47 -88 -47 -138zM502.003 1083c0 -36 7.83203 -69.3311 23.499 -99.998s43.834 -68.334 84.501 -113.001
c75.333 27.333 131.833 59.166 169.5 95.499s56.5 80.5 56.5 132.5c0 48 -15.333 87 -46 117s-70 45 -118 45c-50.667 0 -91.667 -16.5 -123 -49.5s-47 -75.5 -47 -127.5z" />
    <glyph glyph-name="quotesingle" unicode="'" horiz-adv-x="550" 
d="M123 821l47 613h285v-11l-201 -602h-131z" />
    <glyph glyph-name="parenleft" unicode="(" horiz-adv-x="901" 
d="M129 588c0 191.333 47.332 359.334 141.999 504.001s236.334 268.667 425.001 372l109 -166c-147.333 -98 -255.5 -203.167 -324.5 -315.5s-103.5 -243.833 -103.5 -394.5s34.5 -282.334 103.5 -395.001s177.167 -218 324.5 -316l-109 -166
c-378 208 -567 500.333 -567 877z" />
    <glyph glyph-name="parenright" unicode=")" horiz-adv-x="901" 
d="M98 -123c147.333 98 255.5 203.332 324.5 315.999s103.5 244.334 103.5 395.001s-34.5 282.167 -103.5 394.5s-177.167 217.5 -324.5 315.5l109 166c378 -208.667 567 -500.667 567 -876c0 -376 -189 -668.333 -567 -877z" />
    <glyph glyph-name="asterisk" unicode="*" horiz-adv-x="880" 
d="M119 1008l233 102l-233 102l74 125l204 -149l-28 250h143l-29 -250l205 149l74 -125l-234 -102l234 -102l-74 -125l-205 149l29 -250h-143l28 250l-204 -149z" />
    <glyph glyph-name="plus" unicode="+" horiz-adv-x="1310" 
d="M145 608v226h394v391h233v-391h393v-226h-393v-391h-233v391h-394z" />
    <glyph glyph-name="comma" unicode="," horiz-adv-x="550" 
d="M70 -193c117.333 23.333 176 80 176 170c0 2.66699 -0.333008 6.5 -1 11.5s-1 8.83301 -1 11.5h-105v281h273v-238c0 -110.667 -26.167 -193 -78.5 -247s-131.5 -85 -237.5 -93z" />
    <glyph glyph-name="hyphen" unicode="-" horiz-adv-x="835" 
d="M115 506v244h606v-244h-606z" />
    <glyph glyph-name="period" unicode="." horiz-adv-x="550" 
d="M139 0v281h273v-281h-273z" />
    <glyph glyph-name="slash" unicode="/" horiz-adv-x="1067" 
d="M-51 -262l925 1896h216l-926 -1896h-215z" />
    <glyph glyph-name="zero" unicode="0" horiz-adv-x="1482" 
d="M117 717c0 136.667 25.667 261.001 77 373.001s125 201.333 221 268s205.333 100 328 100c122 0 230.833 -33 326.5 -99s169 -155 220 -267s76.5 -237 76.5 -375c0 -102 -15.167 -198.333 -45.5 -289s-72.333 -169.334 -126 -236.001s-120 -119.5 -199 -158.5
s-164.5 -58.5 -256.5 -58.5c-122.667 0 -231.667 33 -327 99s-168.333 155.167 -219 267.5s-76 237.5 -76 375.5zM377 717.001c0 -94.667 14.8311 -180.833 44.498 -258.5s72.5 -139.667 128.5 -186s120.333 -69.5 193 -69.5s136.834 23 192.501 69s98 107.667 127 185
s43.5 164 43.5 260c0 144.667 -34.167 266.5 -102.5 365.5s-156.5 148.5 -264.5 148.5c-72 0 -135.667 -22.833 -191 -68.5s-97.666 -107.167 -126.999 -184.5s-44 -164.333 -44 -261z" />
    <glyph glyph-name="one" unicode="1" horiz-adv-x="811" 
d="M53 1321l385 123h176v-1444h-249v1188l-259 -72z" />
    <glyph glyph-name="two" unicode="2" horiz-adv-x="1255" 
d="M100 0l-0.00195312 199l494 419c100.667 84.667 170.5 154.667 209.5 210s58.5 114.666 58.5 177.999c0 68.667 -21.667 123 -65 163s-98.666 60 -165.999 60c-62.667 0 -119 -17 -169 -51s-104.333 -88.667 -163 -164l-178 139
c48.667 68.667 95.834 123.834 141.501 165.501s100.667 74.667 165 99s138.166 36.5 221.499 36.5c140.667 0 254.667 -39.667 342 -119s131 -183.666 131 -312.999c0 -44.667 -5.16699 -86.334 -15.5 -125.001s-24.166 -74.167 -41.499 -106.5s-42.833 -67 -76.5 -104
s-67.667 -71.167 -102 -102.5s-79.833 -70.333 -136.5 -117l-295 -246h682v-221h-1037z" />
    <glyph glyph-name="three" unicode="3" horiz-adv-x="1265" 
d="M88 227l175.999 164.001c52.667 -62.667 109.334 -109.667 170.001 -141s129.667 -47 207 -47c72 0 131.333 20.167 178 60.5s70 93.833 70 160.5c0 70 -29.5 124.333 -88.5 163s-139.5 58 -241.5 58h-117l-41 158l387 411h-620v220h948v-189l-399 -409
c59.333 -8.66699 113.5 -22.667 162.5 -42s93.333 -45 133 -77s70.667 -72.5 93 -121.5s33.5 -104.833 33.5 -167.5c0 -132.667 -46.667 -241.334 -140 -326.001s-214 -127 -362 -127c-228 0 -411 84 -549 252z" />
    <glyph glyph-name="four" unicode="4" horiz-adv-x="1394" 
d="M74 502l796 942h215v-916h205v-206h-205v-322h-241v322h-723zM373 528h471v568z" />
    <glyph glyph-name="five" unicode="5" horiz-adv-x="1273" 
d="M96 195l155.998 181.997c124.667 -114.667 247.667 -172 369 -172c86 0 154.833 22.833 206.5 68.5s77.5 106.834 77.5 183.501c0 72 -27.5 129.5 -82.5 172.5s-126.5 64.5 -214.5 64.5c-87.333 0 -175.333 -21 -264 -63l-151 100l40 703h857v-224h-639l-23 -336
c74.667 27.333 150.334 41 227.001 41c95.333 0 179.833 -16.167 253.5 -48.5s132.834 -83.166 177.501 -152.499s67 -153.666 67 -252.999c0 -146 -48.667 -263.5 -146 -352.5s-225.333 -133.5 -384 -133.5c-200 0 -375.667 73.333 -527 220z" />
    <glyph glyph-name="six" unicode="6" horiz-adv-x="1343" 
d="M117 678c0 88 8.16602 170.999 24.499 248.999s41.333 149.5 75 214.5s74.5 121 122.5 168s105.5 83.5 172.5 109.5s140.167 39 219.5 39c88.667 0 167.167 -13.333 235.5 -40s135.833 -66.667 202.5 -120l-135 -194c-54.667 42.667 -105.5 74.167 -152.5 94.5
s-99.833 30.5 -158.5 30.5c-103.333 0 -185 -41.833 -245 -125.5s-93 -193.5 -99 -329.5c45.333 44.667 94.5 79.834 147.5 105.501s117.833 38.5 194.5 38.5c94 0 178.5 -17.333 253.5 -52s135.167 -87 180.5 -157s68 -152 68 -246c0 -93.333 -23.333 -177.333 -70 -252
s-110.667 -132.667 -192 -174s-171.666 -62 -270.999 -62c-164.667 0 -297 50 -397 150c-59.333 59.333 -103.5 131.333 -132.5 216s-43.5 197 -43.5 337zM386.999 450.999c0 -74 27.333 -135.499 82 -184.499s126.334 -73.5 215.001 -73.5c87.333 0 157 24.667 209 74
s78 112.666 78 189.999c0 72.667 -26.833 132.5 -80.5 179.5s-124.5 70.5 -212.5 70.5c-86.667 0 -156.834 -24.5 -210.501 -73.5s-80.5 -109.833 -80.5 -182.5z" />
    <glyph glyph-name="seven" unicode="7" horiz-adv-x="1247" 
d="M139 1212v222h1008v-191l-647 -1243h-283l643 1212h-721z" />
    <glyph glyph-name="eight" unicode="8" horiz-adv-x="1290" 
d="M98 393c0 161.333 86.001 278.001 258.001 350.001c-139.333 72.667 -209 180.667 -209 324c0 110 47.333 202 142 276s213.334 111 356.001 111c143.333 0 262.166 -37 356.499 -111s141.5 -167.333 141.5 -280c0 -140.667 -69.667 -247.334 -209 -320.001
c83.333 -38.667 147.166 -85.667 191.499 -141s66.5 -124.333 66.5 -207c0 -83.333 -23.833 -156.833 -71.5 -220.5s-112.667 -112 -195 -145s-175.833 -49.5 -280.5 -49.5c-158.667 0 -289.5 38 -392.5 114s-154.5 175.667 -154.5 299zM344.001 406.001
c0 -60.667 27.333 -111.833 82 -153.5s127.667 -62.5 219 -62.5c92 0 165.167 20.833 219.5 62.5s81.5 94.167 81.5 157.5c0 64.667 -28.5 117 -85.5 157s-128.833 60 -215.5 60s-158.5 -20.333 -215.5 -61s-85.5 -94 -85.5 -160zM389.001 1040
c0 -62 24.167 -113.001 72.5 -153.001s109.5 -60 183.5 -60s135.167 20 183.5 60s72.5 91.667 72.5 155c0 56.667 -23.833 104.334 -71.5 143.001s-109.167 58 -184.5 58c-76 0 -137.667 -19.5 -185 -58.5s-71 -87.167 -71 -144.5z" />
    <glyph glyph-name="nine" unicode="9" horiz-adv-x="1343" 
d="M121 963c0 142 49.832 260 149.499 354s227.834 141 384.501 141c88 0 163.5 -12.333 226.5 -37s120.167 -62.667 171.5 -114c56.667 -56.667 99.834 -128.5 129.501 -215.5s44.5 -198.833 44.5 -335.5c0 -153.333 -24.167 -288.833 -72.5 -406.5
s-119.333 -209.5 -213 -275.5s-203.5 -99 -329.5 -99c-93.333 0 -176.333 14.833 -249 44.5s-142.334 72.167 -209.001 127.5l137 193c55.333 -46.667 108.5 -80.834 159.5 -102.501s106.833 -32.5 167.5 -32.5c104 0 186.833 41.333 248.5 124s94.5 191.334 98.5 326.001
c-84 -100.667 -196 -151 -336 -151c-153.333 0 -276.333 41.5 -369 124.5s-139 194.5 -139 334.5zM372.999 971c0 -75.333 26.833 -136.833 80.5 -184.5s124.5 -71.5 212.5 -71.5s158.333 25.167 211 75.5s79 112.5 79 186.5c0 76 -27.5 139 -82.5 189
s-127.167 75 -216.5 75c-86.667 0 -155.667 -25.5 -207 -76.5s-77 -115.5 -77 -193.5z" />
    <glyph glyph-name="colon" unicode=":" horiz-adv-x="571" 
d="M150 0v281h272v-281h-272zM150 801v280h272v-280h-272z" />
    <glyph glyph-name="semicolon" unicode=";" horiz-adv-x="571" 
d="M80 -193c117.333 23.333 176 80 176 170c0 2.66699 -0.333008 6.5 -1 11.5s-1 8.83301 -1 11.5h-104v281h272v-238c0 -110.667 -26.167 -193 -78.5 -247s-131.5 -85 -237.5 -93zM150 801v280h272v-280h-272z" />
    <glyph glyph-name="less" unicode="&#x3c;" horiz-adv-x="1310" 
d="M143 610v221l977 453v-235l-731 -326l731 -328v-237z" />
    <glyph glyph-name="equal" unicode="=" horiz-adv-x="1310" 
d="M176 350v230h959v-230h-959zM176 862v230h959v-230h-959z" />
    <glyph glyph-name="greater" unicode="&#x3e;" horiz-adv-x="1310" 
d="M190 158v235l732 326l-732 328v237l977 -453v-221z" />
    <glyph glyph-name="question" unicode="?" horiz-adv-x="1107" 
d="M49 1225c133.333 151.333 297.999 226.997 493.999 226.997c144.667 0 260.667 -37.667 348 -113s131 -177.666 131 -306.999c0 -62.667 -10.667 -118.5 -32 -167.5s-51.166 -89.667 -89.499 -122s-81.5 -58.666 -129.5 -78.999s-101.667 -35.5 -161 -45.5l-20 -165h-166
l-41 331l10 11c252.667 10 379 87.667 379 233c0 58.667 -21 105.834 -63 141.501s-99.333 53.5 -172 53.5c-120.667 0 -232 -54 -334 -162zM364.999 -0.00292969v281h274v-281h-274z" />
    <glyph glyph-name="at" unicode="@" horiz-adv-x="2007" 
d="M109 561c0 120.667 23.332 235.999 69.999 345.999s109.834 205.333 189.501 286s175 145 286 193s228.167 72 351.5 72c122.667 0 239.5 -22.5 350.5 -67.5s205.833 -104.667 284.5 -179s141.167 -160.833 187.5 -259.5s69.5 -200.334 69.5 -305.001
c0 -83.333 -10.667 -158 -32 -224s-50.5 -119.5 -87.5 -160.5s-79 -72.167 -126 -93.5s-97.5 -32 -151.5 -32c-74.667 0 -137.334 13.5 -188.001 40.5s-89 61.5 -115 103.5c-93.333 -96 -199 -144 -317 -144c-105.333 0 -193.5 35.667 -264.5 107
s-106.5 164.666 -106.5 279.999c0 70 13.167 137 39.5 201s60.833 118.5 103.5 163.5s92.334 80.833 149.001 107.5s114.334 40 173.001 40c127.333 0 223.666 -50.333 288.999 -151l24 123l199 -31l-90 -516c-7.33301 -45.333 -11 -74.666 -11 -87.999
c0 -44.667 14.333 -80.167 43 -106.5s67.667 -39.5 117 -39.5c77.333 0 141.833 36.5 193.5 109.5s77.5 176.5 77.5 310.5c0 74.667 -13 148.167 -39 220.5s-63.667 139.166 -113 200.499s-106.666 115.5 -171.999 162.5s-140.166 83.667 -224.499 110
s-171.833 39.5 -262.5 39.5c-114.667 0 -222.667 -21.667 -324 -65s-187.833 -101.666 -259.5 -174.999s-128.334 -160.333 -170.001 -261s-62.5 -206.667 -62.5 -318c0 -112 20.667 -218 62 -318s98.166 -186.5 170.499 -259.5s160.5 -130.833 264.5 -173.5
s215.667 -64 335 -64c98 0 186.5 11.167 265.5 33.5s159.167 56.833 240.5 103.5l37 -61c-168.667 -102.667 -349.667 -154 -543 -154c-86 0 -169.167 10.833 -249.5 32.5s-153.833 51.834 -220.5 90.501s-127.667 85.5 -183 140.5s-102 115.167 -140 180.5
s-67.5 136.333 -88.5 213s-31.5 155.334 -31.5 236.001zM718.999 536.999c0 -69.333 20.001 -123.667 60.001 -163s92.333 -59 157 -59c75.333 0 141.333 32 198 96s85 140 85 228c0 64.667 -20.333 117.667 -61 159s-92 62 -154 62
c-76.667 0 -143.334 -31.167 -200.001 -93.5s-85 -138.833 -85 -229.5z" />
    <glyph glyph-name="A" unicode="A" horiz-adv-x="1617" 
d="M61 0l631 1444h234l630 -1444h-266l-145 346h-678l-148 -346h-258zM559 569h494l-248 574z" />
    <glyph glyph-name="B" unicode="B" horiz-adv-x="1478" 
d="M184 0v1434h643c165.333 0 290.333 -42.333 375 -127c64 -64 96 -144.667 96 -242c0 -142.667 -68 -249.334 -204 -320.001c91.333 -30.667 161.5 -73.5 210.5 -128.5s73.5 -129.5 73.5 -223.5c0 -126 -47.667 -223 -143 -291s-224.333 -102 -387 -102h-664zM432 223.001
l418.001 0.00195312c87.333 0 155.166 17.167 203.499 51.5s72.5 84.166 72.5 149.499c0 61.333 -24.667 108.666 -74 141.999s-123 50 -221 50h-399v-393zM432.001 829.003h344c84 0 150.167 16.833 198.5 50.5s72.5 83.167 72.5 148.5c0 56.667 -22 101.167 -66 133.5
s-106 48.5 -186 48.5h-363v-381z" />
    <glyph glyph-name="C" unicode="C" horiz-adv-x="1511" 
d="M121 717c0 101.333 18.335 197.332 55.002 287.999s87 169.334 151 236.001s142.333 119.5 235 158.5s192 58.5 298 58.5c123.333 0 228.833 -19.167 316.5 -57.5s169.167 -93.5 244.5 -165.5l-161 -186c-62.667 57.333 -126 101.333 -190 132s-134.667 46 -212 46
c-89.333 0 -170.333 -22.667 -243 -68s-129.167 -106.833 -169.5 -184.5s-60.5 -163.5 -60.5 -257.5c0 -142 45 -262.5 135 -361.5s202.667 -148.5 338 -148.5c82.667 0 155.167 15.333 217.5 46s127.166 77.334 194.499 140.001l162 -164
c-53.333 -55.333 -106.166 -100.666 -158.499 -135.999s-114.333 -63.833 -186 -85.5s-150.834 -32.5 -237.501 -32.5c-136.667 0 -260.834 32.667 -372.501 98s-199 154.666 -262 267.999s-94.5 238.666 -94.5 375.999z" />
    <glyph glyph-name="D" unicode="D" horiz-adv-x="1601" 
d="M184 0v1434h535c110.667 0 213.667 -18.333 309 -55s176 -86.834 242 -150.501s117.667 -139.667 155 -228s56 -182.833 56 -283.5c0 -100 -18.667 -194 -56 -282s-89 -164 -155 -228s-146.667 -114.5 -242 -151.5s-198.333 -55.5 -309 -55.5h-535zM436 229.001h283.002
c149.333 0 269.666 45.333 360.999 136s137 208 137 352c0 142 -45.833 258.667 -137.5 350s-211.834 137 -360.501 137h-283v-975z" />
    <glyph glyph-name="E" unicode="E" horiz-adv-x="1372" 
d="M184 0v1434h1063v-226h-811v-372h719v-226h-719v-385h821v-225h-1073z" />
    <glyph glyph-name="F" unicode="F" horiz-adv-x="1343" 
d="M184 0v1434h1067v-230h-815v-391h723v-229h-723v-584h-252z" />
    <glyph glyph-name="G" unicode="G" horiz-adv-x="1605" 
d="M121 717c0 99.333 18.5 194.167 55.5 284.5s87.5 169.166 151.5 236.499s142.333 120.833 235 160.5s191.667 59.5 297 59.5c120 0 222.5 -15.833 307.5 -47.5s166.167 -80.5 243.5 -146.5l-160 -191c-61.333 52 -122.166 90.667 -182.499 116s-133.166 38 -218.499 38
c-86 0 -164.833 -23 -236.5 -69s-127.667 -108 -168 -186s-60.5 -163 -60.5 -255c0 -98 20 -185.667 60 -263s97.167 -138.166 171.5 -182.499s159.5 -66.5 255.5 -66.5c135.333 0 251 36 347 108v269h-367v219h610v-602c-174 -149.333 -373.333 -224 -598 -224
c-146.667 0 -276.834 32.5 -390.501 97.5s-200.834 153.667 -261.501 266s-91 238.5 -91 378.5z" />
    <glyph glyph-name="H" unicode="H" horiz-adv-x="1556" 
d="M184 0v1434h252v-596h684v596h252v-1434h-252v604h-684v-604h-252z" />
    <glyph glyph-name="I" unicode="I" horiz-adv-x="649" 
d="M199 0v1434h252v-1434h-252z" />
    <glyph glyph-name="J" unicode="J" horiz-adv-x="1144" 
d="M43 211l166 170c44.667 -56 89.5 -98 134.5 -126s96.5 -42 154.5 -42c70 0 125.333 23.833 166 71.5s61 117.5 61 209.5v940h258v-947c0 -165.333 -44.333 -292.333 -133 -381c-84 -84 -200 -126 -348 -126c-194 0 -347 77 -459 231z" />
    <glyph glyph-name="K" unicode="K" horiz-adv-x="1484" 
d="M184 0v1434h252v-721l682 721h309l-596 -617l623 -817h-305l-490 645l-223 -229v-416h-252z" />
    <glyph glyph-name="L" unicode="L" horiz-adv-x="1267" 
d="M184 0v1434h252v-1205h754v-229h-1006z" />
    <glyph glyph-name="M" unicode="M" horiz-adv-x="1777" 
d="M184 0v1434h269l436 -678l436 678h268v-1434h-252v1028l-452 -676h-8l-449 672v-1024h-248z" />
    <glyph glyph-name="N" unicode="N" horiz-adv-x="1617" 
d="M184 0v1434h234l768 -992v992h248v-1434h-211l-791 1020v-1020h-248z" />
    <glyph glyph-name="O" unicode="O" horiz-adv-x="1740" 
d="M121 717c0 100 18.666 195.168 55.999 285.501s88.666 169 153.999 236s145 120.333 239 160s194.667 59.5 302 59.5c108 0 208.667 -19.5 302 -58.5s172.5 -91.833 237.5 -158.5s116 -145.334 153 -236.001s55.5 -186.667 55.5 -288c0 -100 -18.667 -195.333 -56 -286
s-88.666 -169.5 -153.999 -236.5s-145.166 -120.333 -239.499 -160s-195.166 -59.5 -302.499 -59.5c-143.333 0 -272.333 33.5 -387 100.5s-203.334 156.833 -266.001 269.5s-94 236.667 -94 372zM384.999 717.001c0 -92.667 20.499 -177.834 61.499 -255.501
s99 -139.5 174 -185.5s158.833 -69 251.5 -69s176.167 22.833 250.5 68.5s131.833 107.167 172.5 184.5s61 163 61 257c0 92.667 -20.667 177.834 -62 255.501s-99.5 139.5 -174.5 185.5s-158.833 69 -251.5 69s-176.167 -22.833 -250.5 -68.5
s-131.666 -107.167 -171.999 -184.5s-60.5 -163 -60.5 -257z" />
    <glyph glyph-name="P" unicode="P" horiz-adv-x="1368" 
d="M184 0v1434h566c166.667 0 299 -43.833 397 -131.5s147 -205.167 147 -352.5c0 -104 -26.167 -193.5 -78.5 -268.5s-121 -130.5 -206 -166.5s-181.167 -54 -288.5 -54h-285v-461h-252zM436 688h293c94 0 169 23.833 225 71.5s84 110.5 84 188.5
c0 82.667 -27.5 146 -82.5 190s-130.5 66 -226.5 66h-293v-516z" />
    <glyph glyph-name="Q" unicode="Q" horiz-adv-x="1740" 
d="M121 717c0 100 18.6689 195.168 56.002 285.501s88.666 169 153.999 236s145 120.333 239 160s194.667 59.5 302 59.5c108 0 208.667 -19.5 302 -58.5s172.5 -91.833 237.5 -158.5s116 -145.334 153 -236.001s55.5 -186.667 55.5 -288
c0 -165.333 -48.333 -312.333 -145 -441l163 -139l-161 -180l-172 154c-127.333 -90.667 -273 -136 -437 -136c-143.333 0 -272.333 33.5 -387 100.5s-203.334 156.833 -266.001 269.5s-94 236.667 -94 372zM385.002 717.001c0 -92.667 20.499 -177.834 61.499 -255.501
s99 -139.5 174 -185.5s158.833 -69 251.5 -69c91.333 0 173.333 23 246 69l-246 209l162 185l248 -226c49.333 76.667 74 167.667 74 273c0 92.667 -20.667 177.834 -62 255.501s-99.5 139.5 -174.5 185.5s-158.833 69 -251.5 69s-176.167 -22.833 -250.5 -68.5
s-131.666 -107.167 -171.999 -184.5s-60.5 -163 -60.5 -257z" />
    <glyph glyph-name="R" unicode="R" horiz-adv-x="1480" 
d="M184 0l-0.000976562 1434h639c166 0 296.333 -41.333 391 -124s142 -193.667 142 -333c0 -113.333 -30.667 -206.5 -92 -279.5s-144.666 -124.5 -249.999 -154.5l387 -543h-297l-356 500h-312v-500h-252zM435.999 723h369c90 0 161.667 22 215 66s80 103.333 80 178
c0 76 -26 134.5 -78 175.5s-125 61.5 -219 61.5h-367v-481z" />
    <glyph glyph-name="S" unicode="S" horiz-adv-x="1310" 
d="M88 209l152.001 180.001c71.333 -62 143 -108.5 215 -139.5s151 -46.5 237 -46.5c78 0 139.833 16.5 185.5 49.5s68.5 77.833 68.5 134.5c0 36 -8.33301 65.833 -25 89.5s-48.5 46.334 -95.5 68.001s-114.5 42.834 -202.5 63.501c-82.667 19.333 -151 39.5 -205 60.5
s-102.833 47.833 -146.5 80.5s-75.667 72.5 -96 119.5s-30.5 103.5 -30.5 169.5c0 122.667 45.833 222.667 137.5 300s209.167 116 352.5 116c198 0 371.333 -60 520 -180l-135 -191c-132.667 98.667 -262.334 148 -389.001 148c-72 0 -129 -16.333 -171 -49
s-63 -74.334 -63 -125.001c0 -38 9.5 -69.333 28.5 -94s52.5 -47.334 100.5 -68.001s118.333 -42 211 -64c159.333 -38.667 276 -89.834 350 -153.501s111 -153.5 111 -269.5c0 -132 -47.167 -236.333 -141.5 -313s-217.833 -115 -370.5 -115
c-228 0 -427.333 76.333 -598 229z" />
    <glyph glyph-name="T" unicode="T" horiz-adv-x="1327" 
d="M82 1200v234h1163v-234h-454v-1200h-254v1200h-455z" />
    <glyph glyph-name="U" unicode="U" horiz-adv-x="1550" 
d="M162 608v826h252v-816c0 -131.333 31.833 -232.333 95.5 -303s152.5 -106 266.5 -106c113.333 0 201.833 34 265.5 102s95.5 167 95.5 297v826h252v-813c0 -209.333 -54.833 -369 -164.5 -479s-260.5 -165 -452.5 -165c-190 0 -339.167 54 -447.5 162
s-162.5 264.333 -162.5 469z" />
    <glyph glyph-name="V" unicode="V" horiz-adv-x="1536" 
d="M61 1434h279l432 -1102l430 1102h273l-596 -1444h-222z" />
    <glyph glyph-name="W" unicode="W" horiz-adv-x="2285" 
d="M74 1434h272l342 -1063l352 1067h213l353 -1067l342 1063h264l-500 -1444h-217l-352 1030l-352 -1030h-218z" />
    <glyph glyph-name="X" unicode="X" horiz-adv-x="1492" 
d="M76 0l522 729l-502 705h297l357 -514l358 514h289l-500 -701l520 -733h-297l-377 543l-378 -543h-289z" />
    <glyph glyph-name="Y" unicode="Y" horiz-adv-x="1466" 
d="M37 1434h297l401 -635l406 635h289l-570 -863v-571h-254v565z" />
    <glyph glyph-name="Z" unicode="Z" horiz-adv-x="1437" 
d="M133 0v186l846 1024h-819v224h1147v-187l-846 -1024h846v-223h-1174z" />
    <glyph glyph-name="bracketleft" unicode="[" horiz-adv-x="929" 
d="M180 -266v1700h629v-195h-393v-1311h393v-194h-629z" />
    <glyph glyph-name="backslash" unicode="\" horiz-adv-x="1067" 
d="M-23 1634h216l925 -1896h-215z" />
    <glyph glyph-name="bracketright" unicode="]" horiz-adv-x="929" 
d="M121 -72h393v1311h-393v195h631v-1700h-631v194z" />
    <glyph glyph-name="asciicircum" unicode="^" 
d="M115 1010l309 426h176l309 -426h-190l-209 270l-209 -270h-186z" />
    <glyph glyph-name="underscore" unicode="_" horiz-adv-x="1228" 
d="M-4 -135h1237v-193h-1237v193z" />
    <glyph glyph-name="grave" unicode="`" 
d="M254 1454l225 100l217 -335h-192z" />
    <glyph glyph-name="a" unicode="a" horiz-adv-x="1202" 
d="M82 315c0 116 40.168 204.167 120.501 264.5s186.166 90.5 317.499 90.5c106 0 205.667 -15 299 -45v20c0 75.333 -22.833 132.833 -68.5 172.5s-111.5 59.5 -197.5 59.5c-97.333 0 -200.333 -22.667 -309 -68l-68 199c66.667 30 131.5 52.5 194.5 67.5
s135.5 22.5 217.5 22.5c157.333 0 275.833 -39.5 355.5 -118.5s119.5 -191.833 119.5 -338.5v-641h-246v133c-87.333 -104 -204 -156 -350 -156c-70 0 -133.667 12.5 -191 37.5s-104 63.5 -140 115.5s-54 113.667 -54 185zM328.001 324c0 -49.333 19.667 -88.333 59 -117
s89.333 -43 150 -43c82.667 0 151 21.167 205 63.5s81 96.833 81 163.5v62c-72 28.667 -154.667 43 -248 43c-78 0 -138.667 -15 -182 -45s-65 -72.333 -65 -127z" />
    <glyph glyph-name="b" unicode="b" horiz-adv-x="1372" 
d="M156 0l0.000976562 1495h247v-594c96 135.333 218.333 203 367 203c64.667 0 127 -12.667 187 -38s113.667 -61.333 161 -108s85.166 -106.334 113.499 -179.001s42.5 -152.667 42.5 -240c0 -86.667 -14.167 -166 -42.5 -238s-66 -131.333 -113 -178
s-100.5 -82.667 -160.5 -108s-122.667 -38 -188 -38c-148 0 -270.333 63.667 -367 191v-168h-247zM397.001 539.001c0 -101.333 31.001 -184.333 93.001 -249s136.333 -97 223 -97c87.333 0 160.666 31.833 219.999 95.5s89 148.5 89 254.5c0 102 -30 185.167 -90 249.5
s-133 96.5 -219 96.5c-86.667 0 -161 -32.667 -223 -98s-93 -149.333 -93 -252z" />
    <glyph glyph-name="c" unicode="c" horiz-adv-x="1169" 
d="M96 539c0 101.333 23.999 195.167 71.999 281.5s115.167 155.166 201.5 206.499s182.166 77 287.499 77c96.667 0 179.5 -16 248.5 -48s130.5 -78 184.5 -138l-154 -166c-42 44 -84.667 77.5 -128 100.5s-94.333 34.5 -153 34.5c-89.333 0 -163.5 -33.667 -222.5 -101
s-88.5 -149.666 -88.5 -246.999c0 -98 30.5 -180.667 91.5 -248s138.5 -101 232.5 -101c54.667 0 104.334 11.667 149.001 35s88.334 57 131.001 101l150 -148c-58.667 -66 -122.5 -116.333 -191.5 -151s-152.833 -52 -251.5 -52c-105.333 0 -200.833 25.333 -286.5 76
s-152.5 119 -200.5 205s-72 180.333 -72 283z" />
    <glyph glyph-name="d" unicode="d" horiz-adv-x="1372" 
d="M100 543c0 86.667 13.999 166.001 41.999 238.001s65.5 131.167 112.5 177.5s100.333 82.166 160 107.499s122.167 38 187.5 38c146.667 0 269.667 -63.667 369 -191v582h248v-1495h-248v180c-96 -135.333 -219 -203 -369 -203c-64 0 -125.833 12.833 -185.5 38.5
s-113.167 61.667 -160.5 108s-85.166 106 -113.499 179s-42.5 153.167 -42.5 240.5zM349.999 539.001c0 -102 30.332 -185.167 90.999 -249.5s134.334 -96.5 221.001 -96.5c86 0 159.667 32.667 221 98s92 149.333 92 252c0 101.333 -30.667 184.333 -92 249
s-135 97 -221 97c-88 0 -162 -31.833 -222 -95.5s-90 -148.5 -90 -254.5z" />
    <glyph glyph-name="e" unicode="e" horiz-adv-x="1236" 
d="M96 541c0 102.667 22.3359 196.83 67.0029 282.497s107.667 153.834 189 204.501s172.333 76 273 76c67.333 0 129.333 -10.167 186 -30.5s105.167 -48.5 145.5 -84.5s74.666 -78.5 102.999 -127.5s49.333 -102.167 63 -159.5s20.5 -117.333 20.5 -180
c0 -30 -1.33301 -53 -4 -69h-795c13.333 -86.667 48.166 -154.167 104.499 -202.5s125.166 -72.5 206.499 -72.5c58.667 0 111 10.5 157 31.5s91.333 53.5 136 97.5l146 -129c-112 -135.333 -259.667 -203 -443 -203c-104 0 -198 23.333 -282 70
s-150.5 113.334 -199.5 200.001s-73.5 185.334 -73.5 296.001zM342.003 615.996l555.002 -0.000976562c-8.66699 84 -36.834 152.5 -84.501 205.5s-110.834 79.5 -189.501 79.5c-74.667 0 -137.167 -26.167 -187.5 -78.5s-81.5 -121.166 -93.5 -206.499z" />
    <glyph glyph-name="f" unicode="f" horiz-adv-x="770" 
d="M74 868v207h137v78c0 120 29.333 209.333 88 268c57.333 57.333 138.666 86 243.999 86c69.333 0 136 -9.33301 200 -28v-209c-53.333 17.333 -101.666 26 -144.999 26c-95.333 0 -143 -54.333 -143 -163v-60h286v-205h-282v-868h-248v868h-137z" />
    <glyph glyph-name="g" unicode="g" horiz-adv-x="1372" 
d="M100 596c0 77.333 13.8311 148.503 41.498 213.503s64.5 118.667 110.5 161s98.333 75.166 157 98.499s119.667 35 183 35c84 0 156.167 -16.5 216.5 -49.5s114.5 -77.833 162.5 -134.5v161h248v-860c0 -179.333 -46 -315 -138 -407
c-97.333 -97.333 -245.333 -146 -444 -146c-180 0 -341 43 -483 129l92 187c122.667 -76.667 251 -115 385 -115c110.667 0 195.334 28.333 254.001 85s88 139 88 247v84c-49.333 -64 -104.166 -113.167 -164.499 -147.5s-132.5 -51.5 -216.5 -51.5
c-64 0 -125.333 11.667 -184 35s-111 56.166 -157 98.499s-82.667 96.166 -110 161.499s-41 137 -41 215zM349.998 594.003c0 -87.333 29.5 -159 88.5 -215s131.833 -84 218.5 -84c88 0 163 28.333 225 85s93 128.667 93 216s-31 159 -93 215s-137 84 -225 84
c-87.333 0 -160.333 -27.833 -219 -83.5s-88 -128.167 -88 -217.5z" />
    <glyph glyph-name="h" unicode="h" horiz-adv-x="1269" 
d="M156 0v1495h247v-582c87.333 127.333 200 191 338 191c120.667 0 215 -37.5 283 -112.5s102 -176.167 102 -303.5v-688h-247v614c0 84 -20.333 149.167 -61 195.5s-97.667 69.5 -171 69.5c-72.667 0 -131.5 -24.167 -176.5 -72.5s-67.5 -113.833 -67.5 -196.5v-610h-247z
" />
    <glyph glyph-name="i" unicode="i" horiz-adv-x="585" 
d="M160 1247v236h266v-236h-266zM170 0v1081h248v-1081h-248z" />
    <glyph glyph-name="j" unicode="j" horiz-adv-x="585" 
d="M-16 -125c24.667 -4 47.666 -6 68.999 -6c78 0 117 43.667 117 131v1081h248v-1095c0 -213.333 -105.333 -320 -316 -320c-35.333 0 -74.666 3.33301 -117.999 10v199zM159.999 1247v236h266v-236h-266z" />
    <glyph glyph-name="k" unicode="k" horiz-adv-x="1191" 
d="M156 0v1495h247v-893l449 479h301l-430 -440l444 -641h-286l-326 467l-152 -158v-309h-247z" />
    <glyph glyph-name="l" unicode="l" horiz-adv-x="585" 
d="M170 0v1495h248v-1495h-248z" />
    <glyph glyph-name="m" unicode="m" horiz-adv-x="1945" 
d="M156 0v1081h247v-163c41.333 57.333 87.833 102.666 139.5 135.999s115.167 50 190.5 50c76 0 141.333 -17 196 -51s96.667 -80.667 126 -140c97.333 127.333 219.333 191 366 191c118.667 0 211.5 -36.167 278.5 -108.5s100.5 -174.166 100.5 -305.499v-690h-248v614
c0 85.333 -19 150.833 -57 196.5s-92 68.5 -162 68.5c-69.333 0 -125.166 -23.5 -167.499 -70.5s-63.5 -113.167 -63.5 -198.5v-610h-248v616c0 83.333 -19.333 148 -58 194s-92.334 69 -161.001 69c-69.333 0 -125.333 -24.333 -168 -73s-64 -114.667 -64 -198v-608h-247z
" />
    <glyph glyph-name="n" unicode="n" horiz-adv-x="1269" 
d="M156 0v1081h247v-168c87.333 127.333 200 191 338 191c120.667 0 215 -37.5 283 -112.5s102 -176.167 102 -303.5v-688h-247v614c0 84 -20.333 149.167 -61 195.5s-97.667 69.5 -171 69.5c-72.667 0 -131.5 -24.167 -176.5 -72.5s-67.5 -113.833 -67.5 -196.5v-610h-247z
" />
    <glyph glyph-name="o" unicode="o" horiz-adv-x="1345" 
d="M96 539c0 102 24.833 196.165 74.5 282.498s119 155 208 206s187.5 76.5 295.5 76.5c108.667 0 207 -25.167 295 -75.5s156.667 -118.666 206 -204.999s74 -181.166 74 -284.499c0 -76 -14.667 -148.5 -44 -217.5s-69.333 -129 -120 -180s-112 -91.5 -184 -121.5
s-149 -45 -231 -45c-108 0 -206 25.333 -294 76s-156.667 119 -206 205s-74 180.333 -74 283zM344 538.998c0 -96 31.332 -178.167 93.999 -246.5s141.334 -102.5 236.001 -102.5c98 0 177 33.667 237 101s90 150 90 248c0 96.667 -31.167 178.834 -93.5 246.501
s-141.5 101.5 -237.5 101.5c-97.333 0 -176 -33.333 -236 -100s-90 -149.334 -90 -248.001z" />
    <glyph glyph-name="p" unicode="p" horiz-adv-x="1372" 
d="M156 -328l0.000976562 1409h247v-180c96 135.333 218.333 203 367 203c64.667 0 127 -12.667 187 -38s113.667 -61.333 161 -108s85.166 -106.334 113.499 -179.001s42.5 -152.667 42.5 -240c0 -86.667 -14.167 -166 -42.5 -238s-66 -131.333 -113 -178
s-100.5 -82.667 -160.5 -108s-122.667 -38 -188 -38c-148 0 -270.333 63.667 -367 191v-496h-247zM397.001 539.001c0 -101.333 31.001 -184.333 93.001 -249s136.333 -97 223 -97c87.333 0 160.666 31.833 219.999 95.5s89 148.5 89 254.5c0 102 -30 185.167 -90 249.5
s-133 96.5 -219 96.5c-86.667 0 -161 -32.667 -223 -98s-93 -149.333 -93 -252z" />
    <glyph glyph-name="q" unicode="q" horiz-adv-x="1372" 
d="M100 543c0 86.667 13.999 166.001 41.999 238.001s65.5 131.167 112.5 177.5s100.333 82.166 160 107.499s122.167 38 187.5 38c146.667 0 269.667 -63.667 369 -191v168h248v-1409h-248v508c-96 -135.333 -219 -203 -369 -203c-64 0 -125.833 12.833 -185.5 38.5
s-113.167 61.667 -160.5 108s-85.166 106 -113.499 179s-42.5 153.167 -42.5 240.5zM349.999 539.001c0 -102 30.332 -185.167 90.999 -249.5s134.334 -96.5 221.001 -96.5c86 0 159.667 32.667 221 98s92 149.333 92 252c0 101.333 -30.667 184.333 -92 249
s-135 97 -221 97c-88 0 -162 -31.833 -222 -95.5s-90 -148.5 -90 -254.5z" />
    <glyph glyph-name="r" unicode="r" horiz-adv-x="845" 
d="M156 0v1081h247v-243c36 85.333 86 151.666 150 198.999c59.333 43.333 130 65 212 65h21v-262h-14c-112 0 -201.5 -36.5 -268.5 -109.5s-100.5 -179.167 -100.5 -318.5v-412h-247z" />
    <glyph glyph-name="s" unicode="s" 
d="M68 141l110.002 168c118 -88.667 236 -133 354 -133c52.667 0 93.834 10.667 123.501 32s44.5 51 44.5 89c0 15.333 -3.83301 29.166 -11.5 41.499s-17.667 22.833 -30 31.5s-28 17.167 -47 25.5s-38.167 15.5 -57.5 21.5l-66 20
c-4.66699 1.33301 -8.33398 2.33301 -11.001 3l-18 6c-38.667 11.333 -71.334 21.833 -98.001 31.5s-56.334 23.667 -89.001 42s-59 38 -79 59s-37 48 -51 81s-21 69.833 -21 110.5c0 100 36.5 180 109.5 240s164.833 90 275.5 90c66.667 0 135 -10.833 205 -32.5
s134 -51.834 192 -90.501l-98 -176c-112 68 -213.667 102 -305 102c-47.333 0 -84.5 -10.167 -111.5 -30.5s-40.5 -47.5 -40.5 -81.5c0 -12 2.33301 -23.167 7 -33.5s13.167 -20 25.5 -29s23.5 -16.667 33.5 -23s25.833 -13.666 47.5 -21.999l50.5 -19
c12 -4.33301 31.667 -10.833 59 -19.5c2 -0.666992 5.5 -1.66699 10.5 -3s8.5 -2.33301 10.5 -3c37.333 -11.333 69.5 -22.333 96.5 -33s56.667 -25.167 89 -43.5s58.5 -38 78.5 -59s37 -47.5 51 -79.5s21 -67 21 -105c0 -109.333 -37.5 -193.166 -112.5 -251.499
s-171.5 -87.5 -289.5 -87.5c-78.667 0 -158.167 13.833 -238.5 41.5s-153.5 67.5 -219.5 119.5z" />
    <glyph glyph-name="t" unicode="t" horiz-adv-x="839" 
d="M70 868v213h137v297h248v-297h290v-213h-290v-530c0 -90 44.333 -135 133 -135c53.333 0 104.333 12.333 153 37v-203c-64 -36.667 -138.333 -55 -223 -55c-207.333 0 -311 105.667 -311 317v569h-137z" />
    <glyph glyph-name="u" unicode="u" horiz-adv-x="1269" 
d="M143 393l-0.000976562 688h248v-614c0 -84 20.333 -149 61 -195s97.667 -69 171 -69c72.667 0 131.334 24 176.001 72s67 113.333 67 196v610h248v-1081h-248v168c-87.333 -127.333 -200 -191 -338 -191c-120.667 0 -215 37.5 -283 112.5s-102 176.167 -102 303.5z" />
    <glyph glyph-name="v" unicode="v" horiz-adv-x="1218" 
d="M53 1081h266l291 -794l293 794h260l-442 -1089h-223z" />
    <glyph glyph-name="w" unicode="w" horiz-adv-x="1763" 
d="M66 1081h253l218 -741l239 745h211l242 -745l221 741h248l-355 -1089h-221l-241 739l-244 -739h-221z" />
    <glyph glyph-name="x" unicode="x" horiz-adv-x="1187" 
d="M61 0l398 549l-383 532h270l250 -356l250 356h264l-383 -526l399 -555h-270l-266 379l-264 -379h-265z" />
    <glyph glyph-name="y" unicode="y" horiz-adv-x="1220" 
d="M53 1081l264.001 0.000976562l308 -802l280 802h258l-430 -1112c-43.333 -110.667 -91.833 -188.834 -145.5 -234.501s-123.834 -68.5 -210.501 -68.5c-89.333 0 -174.666 22 -255.999 66l84 184c49.333 -27.333 97.666 -41 144.999 -41c35.333 0 64.833 9.33301 88.5 28
s45.5 51 65.5 97z" />
    <glyph glyph-name="z" unicode="z" horiz-adv-x="1146" 
d="M106 0v170l625 709h-602v202h918v-170l-625 -708h625v-203h-941z" />
    <glyph glyph-name="braceleft" unicode="{" horiz-adv-x="997" 
d="M106 494l0.000976562 187.996h54c84 0 143.5 17.333 178.5 52s52.5 92.334 52.5 173.001c0 12 -0.666992 37.167 -2 75.5s-2 62.5 -2 72.5c0 55.333 6.83301 103.333 20.5 144s37.667 78.5 72 113.5s82 64.833 143 89.5s137.5 45.334 229.5 62.001l43 -164
c-62 -17.333 -111.167 -34.166 -147.5 -50.499s-64.333 -36.166 -84 -59.499s-32.5 -47.333 -38.5 -72s-9 -57.334 -9 -98.001c0 -13.333 0.833008 -38.333 2.5 -75s2.5 -62.334 2.5 -77.001c0 -76.667 -17.833 -136.834 -53.5 -180.501s-88.834 -76.834 -159.501 -99.501
c72 -23.333 125.5 -56.666 160.5 -99.999s52.5 -103.666 52.5 -180.999c0 -14.667 -0.833008 -40.167 -2.5 -76.5s-2.5 -61.166 -2.5 -74.499c0 -40.667 3 -73.5 9 -98.5s18.833 -49 38.5 -72s47.667 -42.833 84 -59.5s85.5 -33.667 147.5 -51l-43 -164
c-92 16.667 -168.667 37.334 -230 62.001s-109 54.667 -143 90s-57.833 73.333 -71.5 114s-20.5 88.667 -20.5 144c0 10 0.666992 34 2 72s2 63 2 75c0 80.667 -17.5 138.5 -52.5 173.5s-94.5 52.5 -178.5 52.5h-54z" />
    <glyph glyph-name="bar" unicode="|" horiz-adv-x="677" 
d="M240 -262v1896h198v-1896h-198z" />
    <glyph glyph-name="braceright" unicode="}" horiz-adv-x="997" 
d="M102 -125c62 17.333 111.166 34.3379 147.499 51.0049s64.333 36.5 84 59.5s32.5 47 38.5 72s9 57.833 9 98.5c0 13.333 -0.666992 38.166 -2 74.499s-2 61.833 -2 76.5c0 76.667 17.833 137 53.5 181s88.834 77.333 159.501 100c-72 23.333 -125.5 56.666 -160.5 99.999
s-52.5 103.333 -52.5 180c0 14.667 0.666992 40.334 2 77.001s2 61.667 2 75c0 40.667 -3 73.334 -9 98.001s-18.833 48.667 -38.5 72s-47.667 43.166 -84 59.499s-85.5 33.166 -147.5 50.499l43 164c92 -16.667 168.5 -37.334 229.5 -62.001s108.667 -54.5 143 -89.5
s58.333 -72.833 72 -113.5s20.5 -88.667 20.5 -144c0 -10 -0.666992 -34.167 -2 -72.5s-2 -63.5 -2 -75.5c0 -80.667 17.5 -138.334 52.5 -173.001s94.833 -52 179.5 -52h53v-188h-53c-84 0 -143.667 -17.5 -179 -52.5s-53 -92.833 -53 -173.5c0 -12 0.666992 -37 2 -75
s2 -62 2 -72c0 -55.333 -6.83301 -103.333 -20.5 -144s-37.5 -78.667 -71.5 -114s-81.667 -65.333 -143 -90s-138 -45.334 -230 -62.001z" />
    <glyph glyph-name="asciitilde" unicode="~" horiz-adv-x="1013" 
d="M121 512c24 86.667 53.167 150.667 87.5 192s81.5 62 141.5 62c41.333 0 95.333 -13.667 162 -41s110.334 -41 131.001 -41c28 0 50 7.66699 66 23s31.667 41.666 47 78.999l137 -41c-24 -88 -53.167 -152.667 -87.5 -194s-81.5 -62 -141.5 -62
c-41.333 0 -95.333 13.667 -162 41s-110.334 41 -131.001 41c-28 0 -50 -7.66699 -66 -23s-31.667 -41.666 -47 -78.999z" />
    <glyph glyph-name="uni00A0" unicode="&#xa0;" horiz-adv-x="614" 
 />
    <glyph glyph-name="cent" unicode="&#xa2;" horiz-adv-x="1189" 
d="M106 727c0 102 23.999 195.999 71.999 281.999s115 154.333 201 205s181.667 76 287 76h18l31 156h180l-37 -182c88.667 -27.333 169.334 -80.666 242.001 -159.999l-150 -160c-48 48 -95 82.333 -141 103l-133 -668c98.667 2 192.667 46.333 282 133l144 -141
c-120.667 -138 -269 -207 -445 -207h-12l-35 -176h-180l41 209c-108.667 38.667 -196.667 106.167 -264 202.5s-101 205.5 -101 327.5zM347.999 726.999c0 -68.667 15.501 -130.831 46.501 -186.498s73.5 -97.834 127.5 -126.501l129 661
c-86.667 -2 -158.834 -36.333 -216.501 -103s-86.5 -148.334 -86.5 -245.001z" />
    <glyph glyph-name="sterling" unicode="&#xa3;" horiz-adv-x="1318" 
d="M129 0v160.001l162 49v360h-162v213h162v189c0 150 41.333 268 124 354s198.334 129 347.001 129c105.333 0 193.166 -20 263.499 -60s133.166 -96.333 188.499 -169l-192 -154c-40 51.333 -79.5 89.166 -118.5 113.499s-85.5 36.5 -139.5 36.5
c-67.333 0 -120.666 -23 -159.999 -69s-59 -108.333 -59 -187v-183h510v-213h-510v-350h665v-219h-1081z" />
    <glyph glyph-name="yen" unicode="&#xa5;" horiz-adv-x="1404" 
d="M39 1434h293l375 -600l374 600h285l-475 -711h328v-182h-396v-150h396v-182h-396v-209h-241v209h-396v182h396v150h-396v182h326z" />
    <glyph glyph-name="dieresis" unicode="&#xa8;" 
d="M182 1219v241h252v-241h-252zM590 1219v241h252v-241h-252z" />
    <glyph glyph-name="copyright" unicode="&#xa9;" horiz-adv-x="1699" 
d="M109 717c0 99.333 19.335 194.497 58.002 285.497s91 169.833 157 236.5s145 119.834 237 159.501s189 59.5 291 59.5s198.833 -19.667 290.5 -59s170.167 -92.166 235.5 -158.499s117.166 -145 155.499 -236s57.5 -186.833 57.5 -287.5
c0 -99.333 -19.333 -194.5 -58 -285.5s-91 -170 -157 -237s-145 -120.333 -237 -160s-189 -59.5 -291 -59.5c-136 0 -260.833 33.333 -374.5 100s-202.834 156.834 -267.501 270.501s-97 237.5 -97 371.5zM186.002 712.997c0 -120.667 28.665 -231.832 85.998 -333.499
s136.833 -182.167 238.5 -241.5s214.167 -89 337.5 -89c124 0 237 30 339 90s181.833 141.5 239.5 244.5s86.5 215.5 86.5 337.5c0 120.667 -28.667 231.667 -86 333s-136.666 181.666 -237.999 240.999s-213.666 89 -336.999 89c-124 0 -237.167 -30 -339.5 -90
s-182.333 -141.333 -240 -244s-86.5 -215 -86.5 -337zM465 726.999c0 111.333 37.667 205.998 113 283.998s170 117 284 117c68 0 125.667 -10.167 173 -30.5s91.333 -50.166 132 -89.499l-96 -111c-68 61.333 -137.667 92 -209 92c-68.667 0 -126 -25.5 -172 -76.5
s-69 -113.5 -69 -187.5c0 -71.333 23 -132.5 69 -183.5s103.333 -76.5 172 -76.5c43.333 0 81 7.83301 113 23.5s65.333 39.834 100 72.501l99 -96c-44 -46 -90.5 -80.667 -139.5 -104s-107.833 -35 -176.5 -35c-112 0 -205.5 38.5 -280.5 115.5
s-112.5 172.167 -112.5 285.5z" />
    <glyph glyph-name="guillemotleft" unicode="&#xab;" horiz-adv-x="1241" 
d="M90 532v17l340 450l188 -96l-270 -360l270 -363l-188 -96zM606 532v17l338 450l189 -96l-271 -360l271 -363l-189 -96z" />
    <glyph glyph-name="uni00AD" unicode="&#xad;" horiz-adv-x="835" 
d="M115 506v244h606v-244h-606z" />
    <glyph glyph-name="registered" unicode="&#xae;" horiz-adv-x="1699" 
d="M109 717c0 99.333 19.335 194.497 58.002 285.497s91 169.833 157 236.5s145 119.834 237 159.501s189 59.5 291 59.5s198.833 -19.667 290.5 -59s170.167 -92.166 235.5 -158.499s117.166 -145 155.499 -236s57.5 -186.833 57.5 -287.5
c0 -99.333 -19.333 -194.5 -58 -285.5s-91 -170 -157 -237s-145 -120.333 -237 -160s-189 -59.5 -291 -59.5c-136 0 -260.833 33.333 -374.5 100s-202.834 156.834 -267.501 270.501s-97 237.5 -97 371.5zM186.002 712.997c0 -120.667 28.665 -231.832 85.998 -333.499
s136.833 -182.167 238.5 -241.5s214.167 -89 337.5 -89c124 0 237 30 339 90s181.833 141.5 239.5 244.5s86.5 215.5 86.5 337.5c0 120.667 -28.667 231.667 -86 333s-136.666 181.666 -237.999 240.999s-213.666 89 -336.999 89c-124 0 -237.167 -30 -339.5 -90
s-182.333 -141.333 -240 -244s-86.5 -215 -86.5 -337zM551 349.999l-0.000976562 776.001h346c101.333 0 180 -28 236 -84c42 -40 63 -95 63 -165c0 -60.667 -16.167 -110.834 -48.5 -150.501s-76.166 -67.5 -131.499 -83.5l209 -293h-176l-193 268h-158v-268h-147z
M697.999 748h193c48 0 85.5 11 112.5 33s40.5 52.333 40.5 91s-13.5 68.5 -40.5 89.5s-64.5 31.5 -112.5 31.5h-193v-245z" />
    <glyph glyph-name="acute" unicode="&#xb4;" 
d="M328 1219l217 335l225 -100l-250 -235h-192z" />
    <glyph glyph-name="cedilla" unicode="&#xb8;" 
d="M268 -248l185 268h186l-154 -358z" />
    <glyph glyph-name="guillemotright" unicode="&#xbb;" horiz-adv-x="1241" 
d="M109 178l270 361l-270 362l188 98l338 -450v-17l-338 -448zM623 178l270 361l-270 362l188 98l340 -450v-17l-340 -448z" />
    <glyph glyph-name="circumflex" unicode="&#x2c6;" 
d="M160 1219l237 299h230l237 -299h-196l-158 137l-158 -137h-192z" />
    <glyph glyph-name="ring" unicode="&#x2da;" 
d="M279 1442c0 60 23.333 112.167 70 156.5s101 66.5 163 66.5s116.333 -22.333 163 -67s70 -98 70 -160c0 -60 -23.333 -112.333 -70 -157s-101 -67 -163 -67s-116.333 22.5 -163 67.5s-70 98.5 -70 160.5zM385 1438c0 -34 12.5 -63.333 37.5 -88s54.833 -37 89.5 -37
c35.333 0 65.333 12.5 90 37.5s37 55.5 37 91.5c0 34 -12.5 63.333 -37.5 88s-54.833 37 -89.5 37c-35.333 0 -65.333 -12.5 -90 -37.5s-37 -55.5 -37 -91.5z" />
    <glyph glyph-name="tilde" unicode="&#x2dc;" 
d="M125 1239c24 88 53.167 152.667 87.5 194s81.5 62 141.5 62c40.667 0 94.667 -13.667 162 -41s111.666 -41 132.999 -41c28 0 49.667 7.66699 65 23s31.333 42 48 80l137 -43c-24 -86.667 -53.167 -150.667 -87.5 -192s-81.5 -62 -141.5 -62
c-40.667 0 -94.667 13.5 -162 40.5s-111.666 40.5 -132.999 40.5c-28 0 -49.667 -7.5 -65 -22.5s-31.333 -41.5 -48 -79.5z" />
    <glyph glyph-name="afii10023" unicode="&#x401;" horiz-adv-x="1372" 
d="M184 0v1434h1063v-226h-811v-372h719v-226h-719v-385h821v-225h-1073zM385 1552v242h252v-242h-252zM793 1552v242h251v-242h-251z" />
    <glyph glyph-name="afii10051" unicode="&#x402;" horiz-adv-x="1789" 
d="M78 1206l-0.00292969 228h1182v-228h-527v-401c128.667 91.333 269.334 137 422.001 137c144.667 0 261.667 -42.167 351 -126.5s134 -201.833 134 -352.5c0 -160 -44.333 -282.667 -133 -368s-206 -128 -352 -128c-72 0 -144.333 12.333 -217 37l47 221
c36.667 -12 76.334 -18 119.001 -18c37.333 0 72 4.5 104 13.5s61.167 22.833 87.5 41.5s47 44.667 62 78s22.5 72.333 22.5 117c0 78 -24.667 138 -74 180s-118 63 -206 63c-141.333 0 -263.666 -46.333 -366.999 -139v-561h-252v1206h-403z" />
    <glyph glyph-name="afii10052" unicode="&#x403;" horiz-adv-x="1216" 
d="M184 0v1434h965v-228h-715v-1206h-250zM477 1552l217 336l226 -100l-250 -236h-193z" />
    <glyph glyph-name="afii10053" unicode="&#x404;" horiz-adv-x="1507" 
d="M121 717c0 100.667 18.3311 196.331 54.998 286.998s87 169.334 151 236.001s142 119.667 234 159s191 59 297 59c120 0 222.333 -19.333 307 -58s165.334 -94.334 242.001 -167.001l-143 -172c-128 113.333 -264 170 -408 170
c-117.333 0 -218.666 -37.667 -303.999 -113s-139 -171.666 -161 -288.999h643v-215h-645c20 -120.667 73 -219.667 159 -297s188.667 -116 308 -116c84.667 0 158.667 15.333 222 46s129.333 77.334 198 140.001l162 -166c-77.333 -82 -162.5 -143.5 -255.5 -184.5
s-204.5 -61.5 -334.5 -61.5c-102.667 0 -199.167 19.333 -289.5 58s-167.333 91 -231 157s-114 144.667 -151 236s-55.5 188.333 -55.5 291z" />
    <glyph glyph-name="afii10054" unicode="&#x405;" horiz-adv-x="1310" 
d="M88 209l152.001 180.001c71.333 -62 143 -108.5 215 -139.5s151 -46.5 237 -46.5c78 0 139.833 16.5 185.5 49.5s68.5 77.833 68.5 134.5c0 36 -8.33301 65.833 -25 89.5s-48.5 46.334 -95.5 68.001s-114.5 42.834 -202.5 63.501c-82.667 19.333 -151 39.5 -205 60.5
s-102.833 47.833 -146.5 80.5s-75.667 72.5 -96 119.5s-30.5 103.5 -30.5 169.5c0 122.667 45.833 222.667 137.5 300s209.167 116 352.5 116c198 0 371.333 -60 520 -180l-135 -191c-132.667 98.667 -262.334 148 -389.001 148c-72 0 -129 -16.333 -171 -49
s-63 -74.334 -63 -125.001c0 -38 9.5 -69.333 28.5 -94s52.5 -47.334 100.5 -68.001s118.333 -42 211 -64c159.333 -38.667 276 -89.834 350 -153.501s111 -153.5 111 -269.5c0 -132 -47.167 -236.333 -141.5 -313s-217.833 -115 -370.5 -115
c-228 0 -427.333 76.333 -598 229z" />
    <glyph glyph-name="afii10055" unicode="&#x406;" horiz-adv-x="649" 
d="M199 0v1434h252v-1434h-252z" />
    <glyph glyph-name="afii10056" unicode="&#x407;" horiz-adv-x="649" 
d="M-4 1552v242h252v-242h-252zM199 0v1434h252v-1434h-252zM403 1552v242h252v-242h-252z" />
    <glyph glyph-name="afii10057" unicode="&#x408;" horiz-adv-x="1144" 
d="M43 211l166 170c44.667 -56 89.5 -98 134.5 -126s96.5 -42 154.5 -42c70 0 125.333 23.833 166 71.5s61 117.5 61 209.5v940h258v-947c0 -165.333 -44.333 -292.333 -133 -381c-84 -84 -200 -126 -348 -126c-194 0 -347 77 -459 231z" />
    <glyph glyph-name="afii10058" unicode="&#x409;" horiz-adv-x="2318" 
d="M10 6l25 206.998c24 -8 51.333 -12 82 -12c23.333 0 43.833 2.5 61.5 7.5s36.667 15.333 57 31s38 37.334 53 65.001s29.667 65.334 44 113.001s26 104.334 35 170.001s16.167 146 21.5 241s8 202.5 8 322.5v283h975v-516h330c164 0 294.333 -39.333 391 -118
s145 -189 145 -331c0 -144.667 -48.167 -259 -144.5 -343s-227.5 -126 -393.5 -126h-580v1206h-487v-129c0 -148 -4.33301 -279 -13 -393s-22.167 -210.833 -40.5 -290.5s-39.833 -146.334 -64.5 -200.001s-54.5 -95.667 -89.5 -126s-71.5 -51.833 -109.5 -64.5
s-82 -19 -132 -19c-58.667 0 -116.667 7.33301 -174 22zM1372 224.998h324c94 0 166.333 21 217 63s76 103 76 183c0 73.333 -26 129.5 -78 168.5s-125.667 58.5 -221 58.5h-318v-473z" />
    <glyph glyph-name="afii10059" unicode="&#x40a;" horiz-adv-x="2316" 
d="M184 0l0.000976562 1434h250v-562h684v562h252v-562h359c155.333 0 278.666 -37.5 369.999 -112.5s137 -180.167 137 -315.5c0 -140 -46 -249 -138 -327s-219.333 -117 -382 -117h-598v657h-684v-657h-250zM1370 225h336c186 0 279 76 279 228
c0 68 -24 119.833 -72 155.5s-118.333 53.5 -211 53.5h-332v-437z" />
    <glyph glyph-name="afii10060" unicode="&#x40b;" horiz-adv-x="1789" 
d="M78 1206l-0.00195312 227.999h1182v-228h-527v-409c131.333 91.333 272 137 422 137c144.667 0 261.667 -38.333 351 -115s134 -185 134 -325v-494h-249v401c0 90.667 -24.5 161.834 -73.5 213.501s-118.167 77.5 -207.5 77.5c-75.333 0 -143.166 -11.333 -203.499 -34
s-118.166 -59 -173.499 -109v-549h-250v1206h-405z" />
    <glyph glyph-name="afii10061" unicode="&#x40c;" horiz-adv-x="1484" 
d="M184 0v1434h252v-721l682 721h309l-596 -617l623 -817h-305l-490 645l-223 -229v-416h-252zM627 1552l217 336l225 -100l-250 -236h-192z" />
    <glyph glyph-name="afii10062" unicode="&#x40e;" horiz-adv-x="1499" 
d="M51 1434l283 0.000976562l446 -834l394 834h272l-559 -1121c-58.667 -118.667 -125.167 -204.334 -199.5 -257.001s-159.5 -79 -255.5 -79c-97.333 0 -190.666 24 -279.999 72l96 189c52 -30 110.667 -45 176 -45c36 0 74.167 12.333 114.5 37s77.166 64 110.499 118z
M455 1833l152.999 29c27.333 -93.333 84 -140 170 -140c84 0 140.667 46.667 170 140l152 -29c-13.333 -88.667 -48.666 -158.667 -105.999 -210s-129.333 -77 -216 -77s-158.5 25.667 -215.5 77s-92.833 121.333 -107.5 210z" />
    <glyph glyph-name="afii10145" unicode="&#x40f;" horiz-adv-x="1538" 
d="M182 0v1434h250v-1207h670v1207h250v-1434h-461v-307h-244v307h-465z" />
    <glyph glyph-name="afii10017" unicode="&#x410;" horiz-adv-x="1617" 
d="M61 0l631 1444h234l630 -1444h-266l-145 346h-678l-148 -346h-258zM559 569h494l-248 574z" />
    <glyph glyph-name="afii10018" unicode="&#x411;" horiz-adv-x="1454" 
d="M184 0v1434h1069v-228h-819v-329h400c159.333 0 285.833 -38.333 379.5 -115s140.5 -183.334 140.5 -320.001c0 -142 -47.333 -251.167 -142 -327.5s-225 -114.5 -391 -114.5h-637zM434 225.001l332 -0.000976562c114 0 198.5 16.833 253.5 50.5
s82.5 92.834 82.5 177.501c0 68.667 -25 121 -75 157s-122 54 -216 54h-377v-439z" />
    <glyph glyph-name="afii10019" unicode="&#x412;" horiz-adv-x="1478" 
d="M184 0v1434h643c165.333 0 290.333 -42.333 375 -127c64 -64 96 -144.667 96 -242c0 -142.667 -68 -249.334 -204 -320.001c91.333 -30.667 161.5 -73.5 210.5 -128.5s73.5 -129.5 73.5 -223.5c0 -126 -47.667 -223 -143 -291s-224.333 -102 -387 -102h-664zM432 223.001
l418.001 0.00195312c87.333 0 155.166 17.167 203.499 51.5s72.5 84.166 72.5 149.499c0 61.333 -24.667 108.666 -74 141.999s-123 50 -221 50h-399v-393zM432.001 829.003h344c84 0 150.167 16.833 198.5 50.5s72.5 83.167 72.5 148.5c0 56.667 -22 101.167 -66 133.5
s-106 48.5 -186 48.5h-363v-381z" />
    <glyph glyph-name="afii10020" unicode="&#x413;" horiz-adv-x="1216" 
d="M184 0v1434h965v-228h-715v-1206h-250z" />
    <glyph glyph-name="afii10021" unicode="&#x414;" horiz-adv-x="1560" 
d="M20 225h140c61.333 122 107 262 137 420s45 353.333 45 586v203h999v-1209h179l-35 -532h-209v307h-1010l-24 -307h-222v532zM428 225l662 -0.000976562v981h-506v-164c0 -333.333 -52 -605.666 -156 -816.999z" />
    <glyph glyph-name="afii10022" unicode="&#x415;" horiz-adv-x="1372" 
d="M184 0v1434h1063v-226h-811v-372h719v-226h-719v-385h821v-225h-1073z" />
    <glyph glyph-name="afii10024" unicode="&#x416;" horiz-adv-x="2224" 
d="M31 0l565 823l-537 611h301l627 -746v746h250v-746l627 746h301l-539 -611l567 -823h-303l-428 637l-225 -256v-381h-250v381l-225 256l-428 -637h-303z" />
    <glyph glyph-name="afii10025" unicode="&#x417;" horiz-adv-x="1323" 
d="M66 211l137.001 174.001c132.667 -126.667 291.667 -190 477 -190c78.667 0 145.167 19.5 199.5 58.5s81.5 91.167 81.5 156.5c0 70 -30 122.167 -90 156.5s-139.333 51.5 -238 51.5h-162v209h160c92 0 164.167 18.167 216.5 54.5s78.5 87.833 78.5 154.5
c0 60 -25 108.5 -75 145.5s-115.333 55.5 -196 55.5c-82.667 0 -156.167 -13.333 -220.5 -40s-124.5 -66.667 -180.5 -120l-135 164c74 70.667 154.667 124.5 242 161.5s191 55.5 311 55.5c148 0 269 -36.167 363 -108.5s141 -164.5 141 -276.5
c0 -154.667 -81.333 -266 -244 -334c85.333 -26 153.333 -67.667 204 -125s76 -130.333 76 -219c0 -120.667 -48.333 -220.834 -145 -300.501s-223.667 -119.5 -381 -119.5c-135.333 0 -251.833 19.333 -349.5 58s-187.834 98 -270.501 178z" />
    <glyph glyph-name="afii10026" unicode="&#x418;" horiz-adv-x="1579" 
d="M184 0v1434h248v-1047l725 1047h236v-1434h-248v1044l-723 -1044h-238z" />
    <glyph glyph-name="afii10027" unicode="&#x419;" horiz-adv-x="1579" 
d="M184 0v1434h248v-1047l725 1047h236v-1434h-248v1044l-723 -1044h-238zM473 1833l154 29c27.333 -93.333 84 -140 170 -140c84 0 140.667 46.667 170 140l151 -29c-13.333 -88.667 -48.5 -158.667 -105.5 -210s-128.833 -77 -215.5 -77s-158.667 25.667 -216 77
s-93.333 121.333 -108 210z" />
    <glyph glyph-name="afii10028" unicode="&#x41a;" horiz-adv-x="1484" 
d="M184 0v1434h252v-721l682 721h309l-596 -617l623 -817h-305l-490 645l-223 -229v-416h-252z" />
    <glyph glyph-name="afii10029" unicode="&#x41b;" horiz-adv-x="1566" 
d="M10 6l25.0029 206.996c24 -8 51.333 -12 82 -12c23.333 0 43.833 2.5 61.5 7.5s36.667 15.333 57 31s38 37.334 53 65.001s29.667 65.334 44 113.001s26 104.334 35 170.001s16.167 146 21.5 241s8 202.5 8 322.5v283h983v-1434h-252v1206h-495v-129
c0 -179.333 -6.66699 -333.666 -20 -462.999s-31.833 -234.5 -55.5 -315.5s-54.834 -145 -93.501 -192s-79.834 -79.167 -123.501 -96.5s-95.834 -26 -156.501 -26c-58.667 0 -116.667 7.33301 -174 22z" />
    <glyph glyph-name="afii10030" unicode="&#x41c;" horiz-adv-x="1777" 
d="M184 0v1434h269l436 -678l436 678h268v-1434h-252v1028l-452 -676h-8l-449 672v-1024h-248z" />
    <glyph glyph-name="afii10031" unicode="&#x41d;" horiz-adv-x="1556" 
d="M184 0v1434h252v-596h684v596h252v-1434h-252v604h-684v-604h-252z" />
    <glyph glyph-name="afii10032" unicode="&#x41e;" horiz-adv-x="1740" 
d="M121 717c0 100 18.666 195.168 55.999 285.501s88.666 169 153.999 236s145 120.333 239 160s194.667 59.5 302 59.5c108 0 208.667 -19.5 302 -58.5s172.5 -91.833 237.5 -158.5s116 -145.334 153 -236.001s55.5 -186.667 55.5 -288c0 -100 -18.667 -195.333 -56 -286
s-88.666 -169.5 -153.999 -236.5s-145.166 -120.333 -239.499 -160s-195.166 -59.5 -302.499 -59.5c-143.333 0 -272.333 33.5 -387 100.5s-203.334 156.833 -266.001 269.5s-94 236.667 -94 372zM384.999 717.001c0 -92.667 20.499 -177.834 61.499 -255.501
s99 -139.5 174 -185.5s158.833 -69 251.5 -69s176.167 22.833 250.5 68.5s131.833 107.167 172.5 184.5s61 163 61 257c0 92.667 -20.667 177.834 -62 255.501s-99.5 139.5 -174.5 185.5s-158.833 69 -251.5 69s-176.167 -22.833 -250.5 -68.5
s-131.666 -107.167 -171.999 -184.5s-60.5 -163 -60.5 -257z" />
    <glyph glyph-name="afii10033" unicode="&#x41f;" horiz-adv-x="1538" 
d="M184 0v1434h1170v-1434h-252v1206h-666v-1206h-252z" />
    <glyph glyph-name="afii10034" unicode="&#x420;" horiz-adv-x="1368" 
d="M184 0v1434h566c166.667 0 299 -43.833 397 -131.5s147 -205.167 147 -352.5c0 -104 -26.167 -193.5 -78.5 -268.5s-121 -130.5 -206 -166.5s-181.167 -54 -288.5 -54h-285v-461h-252zM436 688h293c94 0 169 23.833 225 71.5s84 110.5 84 188.5
c0 82.667 -27.5 146 -82.5 190s-130.5 66 -226.5 66h-293v-516z" />
    <glyph glyph-name="afii10035" unicode="&#x421;" horiz-adv-x="1511" 
d="M121 717c0 101.333 18.335 197.332 55.002 287.999s87 169.334 151 236.001s142.333 119.5 235 158.5s192 58.5 298 58.5c123.333 0 228.833 -19.167 316.5 -57.5s169.167 -93.5 244.5 -165.5l-161 -186c-62.667 57.333 -126 101.333 -190 132s-134.667 46 -212 46
c-89.333 0 -170.333 -22.667 -243 -68s-129.167 -106.833 -169.5 -184.5s-60.5 -163.5 -60.5 -257.5c0 -142 45 -262.5 135 -361.5s202.667 -148.5 338 -148.5c82.667 0 155.167 15.333 217.5 46s127.166 77.334 194.499 140.001l162 -164
c-53.333 -55.333 -106.166 -100.666 -158.499 -135.999s-114.333 -63.833 -186 -85.5s-150.834 -32.5 -237.501 -32.5c-136.667 0 -260.834 32.667 -372.501 98s-199 154.666 -262 267.999s-94.5 238.666 -94.5 375.999z" />
    <glyph glyph-name="afii10036" unicode="&#x422;" horiz-adv-x="1327" 
d="M82 1200v234h1163v-234h-454v-1200h-254v1200h-455z" />
    <glyph glyph-name="afii10037" unicode="&#x423;" horiz-adv-x="1499" 
d="M51 1434l283 0.000976562l446 -834l394 834h272l-559 -1121c-58.667 -118.667 -125.167 -204.334 -199.5 -257.001s-159.5 -79 -255.5 -79c-97.333 0 -190.666 24 -279.999 72l96 189c52 -30 110.667 -45 176 -45c36 0 74.167 12.333 114.5 37s77.166 64 110.499 118z
" />
    <glyph glyph-name="afii10038" unicode="&#x424;" horiz-adv-x="1878" 
d="M96 729c0 185.333 64.168 335.167 192.501 449.5s303.166 171.5 524.499 171.5v135h250v-135c221.333 0 396.166 -57.333 524.499 -172s192.5 -265 192.5 -451s-64 -337 -192 -453s-303 -174 -525 -174v-155h-250v155c-221.333 0 -396.166 58.167 -524.499 174.5
s-192.5 267.833 -192.5 454.5zM354.001 725.001c0 -126 40.832 -224.332 122.499 -294.999s193.834 -106 336.501 -106v800c-142 0 -254 -35.333 -336 -106s-123 -168.334 -123 -293.001zM1063 324.002c143.333 0 255.668 35.166 337.001 105.499s122 168.833 122 295.5
c0 124.667 -40.833 222.334 -122.5 293.001s-193.834 106 -336.501 106v-800z" />
    <glyph glyph-name="afii10039" unicode="&#x425;" horiz-adv-x="1492" 
d="M76 0l522 729l-502 705h297l357 -514l358 514h289l-500 -701l520 -733h-297l-377 543l-378 -543h-289z" />
    <glyph glyph-name="afii10040" unicode="&#x426;" horiz-adv-x="1576" 
d="M184 0v1434h252v-1207h672v1207h250v-1207h178l-35 -534h-209v307h-1108z" />
    <glyph glyph-name="afii10041" unicode="&#x427;" horiz-adv-x="1462" 
d="M145 903l-0.000976562 531h252v-467c0 -91.333 22.5 -162 67.5 -212s111.5 -75 199.5 -75c62.667 0 126.834 10.833 192.501 32.5s122.167 48.5 169.5 80.5v641h252v-1434h-252v567c-155.333 -80.667 -291.333 -121 -408 -121c-145.333 0 -260.5 38.667 -345.5 116
s-127.5 191 -127.5 341z" />
    <glyph glyph-name="afii10042" unicode="&#x428;" horiz-adv-x="2246" 
d="M184 0v1434h250v-1209h563v1209h252v-1209h563v1209h250v-1434h-1878z" />
    <glyph glyph-name="afii10043" unicode="&#x429;" horiz-adv-x="2281" 
d="M184 0v1434h252v-1207h563v1207h250v-1207h563v1207h252v-1207h177l-35 -534h-207v307h-1815z" />
    <glyph glyph-name="afii10044" unicode="&#x42a;" horiz-adv-x="1628" 
d="M72 1206v228h608v-516h330c164 0 294.667 -39.333 392 -118s146 -189 146 -331c0 -144.667 -48.5 -259 -145.5 -343s-228.5 -126 -394.5 -126h-578v1206h-358zM680 225h324c94 0 166.5 21 217.5 63s76.5 103 76.5 183c0 73.333 -26 129.5 -78 168.5
s-126.333 58.5 -223 58.5h-317v-473z" />
    <glyph glyph-name="afii10045" unicode="&#x42b;" horiz-adv-x="1906" 
d="M184 0v1434h250v-516h330c164 0 294.833 -39.333 392.5 -118s146.5 -189 146.5 -331c0 -144.667 -48.667 -259 -146 -343s-229 -126 -395 -126h-578zM434 225h324c94 0 166.667 21 218 63s77 103 77 183c0 73.333 -26 129.5 -78 168.5s-125.667 58.5 -221 58.5h-320v-473
zM1473 0v1434h249v-1434h-249z" />
    <glyph glyph-name="afii10046" unicode="&#x42c;" horiz-adv-x="1382" 
d="M184 0v1434h250v-516h330c164 0 294.833 -39.333 392.5 -118s146.5 -189 146.5 -331c0 -144.667 -48.667 -259 -146 -343s-229 -126 -395 -126h-578zM434 225h324c94 0 166.667 21 218 63s77 103 77 183c0 73.333 -26 129.5 -78 168.5s-125.667 58.5 -221 58.5h-320v-473
z" />
    <glyph glyph-name="afii10047" unicode="&#x42d;" horiz-adv-x="1503" 
d="M66 221l160.999 166.004c68.667 -62.667 134.667 -109.334 198 -140.001s137.333 -46 222 -46c120.667 0 223.667 38.667 309 116s138 176.333 158 297h-643v215h641c-22 117.333 -75.667 213.666 -161 288.999s-186.666 113 -303.999 113
c-78.667 0 -150.667 -14.667 -216 -44s-129 -71.333 -191 -126l-144 172c76.667 72 157.5 127.5 242.5 166.5s187.167 58.5 306.5 58.5c106 0 205 -19.667 297 -59s170 -92.333 234 -159s114.333 -145.334 151 -236.001s55 -186.334 55 -287.001
c0 -102.667 -18.5 -199.667 -55.5 -291s-87.333 -170 -151 -236s-140.667 -118.333 -231 -157s-186.833 -58 -289.5 -58c-130 0 -241.333 20.5 -334 61.5s-177.667 102.5 -255 184.5z" />
    <glyph glyph-name="afii10048" unicode="&#x42e;" horiz-adv-x="2166" 
d="M184 0l0.00195312 1434h252v-600h238c16 118 54.333 224 115 318s140.667 168.5 240 223.5s209 82.5 329 82.5c133.333 0 252.666 -32.833 357.999 -98.5s186.666 -154.667 243.999 -267s86 -237.5 86 -375.5c0 -136.667 -28.833 -261.334 -86.5 -374.001
s-139.5 -202.167 -245.5 -268.5s-226 -99.5 -360 -99.5c-122 0 -232.5 27.667 -331.5 83s-178.333 130.666 -238 225.999s-97.167 203.333 -112.5 324h-236v-608h-252zM926.002 717.002c0 -145.333 40.666 -267.331 121.999 -365.998s184.666 -148 309.999 -148
c126 0 229.167 49 309.5 147s120.5 220.333 120.5 367c0 94.667 -18.333 181 -55 259s-88.167 139.667 -154.5 185s-141.166 68 -224.499 68s-157.666 -22.333 -222.999 -67s-115.833 -105.834 -151.5 -183.501s-53.5 -164.834 -53.5 -261.501z" />
    <glyph glyph-name="afii10049" unicode="&#x42f;" horiz-adv-x="1478" 
d="M74 0l391.002 539c-104.667 28.667 -187.834 80.167 -249.501 154.5s-92.5 168.833 -92.5 283.5c0 140 47.667 251.167 143 333.5s225.666 123.5 390.999 123.5h637v-1434h-250v496h-317l-356 -496h-297zM377.002 961c0 -74.667 27 -134.333 81 -179s126 -67 216 -67h370
v491h-366c-94.667 0 -168.5 -21.5 -221.5 -64.5s-79.5 -103.167 -79.5 -180.5z" />
    <glyph glyph-name="afii10065" unicode="&#x430;" horiz-adv-x="1202" 
d="M82 315c0 116 40.168 204.167 120.501 264.5s186.166 90.5 317.499 90.5c106 0 205.667 -15 299 -45v20c0 75.333 -22.833 132.833 -68.5 172.5s-111.5 59.5 -197.5 59.5c-97.333 0 -200.333 -22.667 -309 -68l-68 199c66.667 30 131.5 52.5 194.5 67.5
s135.5 22.5 217.5 22.5c157.333 0 275.833 -39.5 355.5 -118.5s119.5 -191.833 119.5 -338.5v-641h-246v133c-87.333 -104 -204 -156 -350 -156c-70 0 -133.667 12.5 -191 37.5s-104 63.5 -140 115.5s-54 113.667 -54 185zM328.001 324c0 -49.333 19.667 -88.333 59 -117
s89.333 -43 150 -43c82.667 0 151 21.167 205 63.5s81 96.833 81 163.5v62c-72 28.667 -154.667 43 -248 43c-78 0 -138.667 -15 -182 -45s-65 -72.333 -65 -127z" />
    <glyph glyph-name="afii10066" unicode="&#x431;" horiz-adv-x="1339" 
d="M123 606c0 54 0.996094 102.001 2.99609 144.001s6.66699 87.833 14 137.5s17.166 93.5 29.499 131.5s29.333 76.667 51 116s47.334 73 77.001 101s66.334 53.167 110.001 75.5s92.834 39.166 147.501 50.499l590 123l41 -199l-590 -129
c-98 -21.333 -168.333 -58 -211 -110s-67.334 -117.667 -74.001 -197c14.667 25.333 33.834 49.333 57.501 72s52.334 44.167 86.001 64.5s74 36.5 121 48.5s97.5 18 151.5 18c68.667 0 134.667 -13.667 198 -41s118.333 -64.333 165 -111s83.834 -102.667 111.501 -168
s41.5 -134.333 41.5 -207c0 -99.333 -24 -191 -72 -275s-115.333 -151 -202 -201s-183 -75 -289 -75c-175.333 0 -312 55.333 -410 166s-147 265.667 -147 465zM370.996 522.001c0 -92.667 29.999 -171.167 89.999 -235.5s134.333 -96.5 223 -96.5
c91.333 0 166 31.833 224 95.5s87 142.5 87 236.5c0 92.667 -30.167 171.5 -90.5 236.5s-135.166 97.5 -224.499 97.5c-90 0 -164 -32.167 -222 -96.5s-87 -143.5 -87 -237.5z" />
    <glyph glyph-name="afii10067" unicode="&#x432;" horiz-adv-x="1208" 
d="M156 0l-0.000976562 1081h555c108 0 194.333 -24.333 259 -73s97 -114.334 97 -197.001c0 -113.333 -58 -196 -174 -248c148.667 -42 223 -132 223 -270c0 -90.667 -35.667 -162.167 -107 -214.5s-168.666 -78.5 -291.999 -78.5h-561zM398.999 197.001h281
c59.333 0 104.833 12.5 136.5 37.5s47.5 58.833 47.5 101.5c0 40.667 -16.5 72.667 -49.5 96s-81.833 35 -146.5 35h-269v-270zM398.999 635.001l253.999 0.000976562c50.667 0 90.334 12.167 119.001 36.5s43 56.5 43 96.5c0 37.333 -13 67.166 -39 89.499
s-65.667 33.5 -119 33.5h-258v-256z" />
    <glyph glyph-name="afii10068" unicode="&#x433;" horiz-adv-x="962" 
d="M156 0v1081h766v-213h-519v-868h-247z" />
    <glyph glyph-name="afii10069" unicode="&#x434;" horiz-adv-x="1310" 
d="M31 213h116c80.667 161.333 121 406.333 121 735v133h838v-868h154l-33 -473h-207v260h-758l-24 -260h-207v473zM401 213h457v655h-356v-143c0 -199.333 -33.667 -370 -101 -512z" />
    <glyph glyph-name="afii10070" unicode="&#x435;" horiz-adv-x="1236" 
d="M96 541c0 102.667 22.3359 196.83 67.0029 282.497s107.667 153.834 189 204.501s172.333 76 273 76c67.333 0 129.333 -10.167 186 -30.5s105.167 -48.5 145.5 -84.5s74.666 -78.5 102.999 -127.5s49.333 -102.167 63 -159.5s20.5 -117.333 20.5 -180
c0 -30 -1.33301 -53 -4 -69h-795c13.333 -86.667 48.166 -154.167 104.499 -202.5s125.166 -72.5 206.499 -72.5c58.667 0 111 10.5 157 31.5s91.333 53.5 136 97.5l146 -129c-112 -135.333 -259.667 -203 -443 -203c-104 0 -198 23.333 -282 70
s-150.5 113.334 -199.5 200.001s-73.5 185.334 -73.5 296.001zM342.003 615.996l555.002 -0.000976562c-8.66699 84 -36.834 152.5 -84.501 205.5s-110.834 79.5 -189.501 79.5c-74.667 0 -137.167 -26.167 -187.5 -78.5s-81.5 -121.166 -93.5 -206.499z" />
    <glyph glyph-name="afii10072" unicode="&#x436;" horiz-adv-x="1792" 
d="M18 0l424 627l-407 454h289l448 -530v530h248v-530l450 530h289l-407 -454l422 -627h-279l-309 461l-166 -189v-272h-248v272l-166 189l-309 -461h-279z" />
    <glyph glyph-name="afii10073" unicode="&#x437;" horiz-adv-x="1060" 
d="M51 141l116.999 163.999c100.667 -86 214 -129 340 -129c58 0 106.667 14 146 42s59 64 59 108c0 40.667 -19.167 73.334 -57.5 98.001s-92.166 37 -161.499 37h-134v178h134c58 0 104.167 13.167 138.5 39.5s51.5 60.166 51.5 101.499
c0 36.667 -16.833 66.334 -50.5 89.001s-76.167 34 -127.5 34c-121.333 0 -223.666 -36.667 -306.999 -110l-111 155c120 104 266.667 156 440 156c118.667 0 215.667 -27.333 291 -82s113 -124.334 113 -209.001c0 -114.667 -56.667 -196.667 -170 -246
c130.667 -46 196 -133.333 196 -262c0 -93.333 -40.167 -171.666 -120.5 -234.999s-184.833 -95 -313.5 -95c-186.667 0 -344.334 55.333 -473.001 166z" />
    <glyph glyph-name="afii10074" unicode="&#x438;" horiz-adv-x="1298" 
d="M156 0v1081h241v-725l512 725h234v-1081h-240v721l-514 -721h-233z" />
    <glyph glyph-name="afii10075" unicode="&#x439;" horiz-adv-x="1298" 
d="M156 0v1081h241v-725l512 725h234v-1081h-240v721l-514 -721h-233zM330 1491l151 29.001c29.333 -93.333 86 -140 170 -140s140.667 46.667 170 140l150 -29c-13.333 -88 -48.5 -157.5 -105.5 -208.5s-128.5 -76.5 -214.5 -76.5c-86.667 0 -158.5 25.667 -215.5 77
s-92.167 120.666 -105.5 207.999z" />
    <glyph glyph-name="afii10076" unicode="&#x43a;" horiz-adv-x="1214" 
d="M156 0v1081h245v-518l471 518h291l-420 -454l455 -627h-293l-327 446l-177 -186v-260h-245z" />
    <glyph glyph-name="afii10077" unicode="&#x43b;" horiz-adv-x="1275" 
d="M2 2l17.998 203c21.333 -5.33301 45.333 -8 72 -8c24 0 43.833 2.83301 59.5 8.5s32.334 18 50.001 37s32 48.333 43 88s21.333 91.334 31 155.001s16.667 145.167 21 244.5s6.5 216.333 6.5 351h817v-1081h-248v868h-337c0 -110.667 -3.16699 -209.167 -9.5 -295.5
s-14.833 -160.333 -25.5 -222s-25 -114.334 -43 -158.001s-36.833 -78.667 -56.5 -105s-43.667 -47 -72 -62s-56.333 -25 -84 -30s-60.167 -7.5 -97.5 -7.5c-39.333 0 -87.666 4.66699 -144.999 14z" />
    <glyph glyph-name="afii10078" unicode="&#x43c;" horiz-adv-x="1480" 
d="M156 0v1081h245l338 -501l340 501h246v-1081h-250v721l-340 -485l-338 481v-717h-241z" />
    <glyph glyph-name="afii10079" unicode="&#x43d;" horiz-adv-x="1284" 
d="M156 0v1081h247v-438h478v438h247v-1081h-247v436h-478v-436h-247z" />
    <glyph glyph-name="afii10080" unicode="&#x43e;" horiz-adv-x="1345" 
d="M96 539c0 102 24.833 196.165 74.5 282.498s119 155 208 206s187.5 76.5 295.5 76.5c108.667 0 207 -25.167 295 -75.5s156.667 -118.666 206 -204.999s74 -181.166 74 -284.499c0 -76 -14.667 -148.5 -44 -217.5s-69.333 -129 -120 -180s-112 -91.5 -184 -121.5
s-149 -45 -231 -45c-108 0 -206 25.333 -294 76s-156.667 119 -206 205s-74 180.333 -74 283zM344 538.998c0 -96 31.332 -178.167 93.999 -246.5s141.334 -102.5 236.001 -102.5c98 0 177 33.667 237 101s90 150 90 248c0 96.667 -31.167 178.834 -93.5 246.501
s-141.5 101.5 -237.5 101.5c-97.333 0 -176 -33.333 -236 -100s-90 -149.334 -90 -248.001z" />
    <glyph glyph-name="afii10081" unicode="&#x43f;" horiz-adv-x="1275" 
d="M156 0v1081h964v-1081h-248v868h-469v-868h-247z" />
    <glyph glyph-name="afii10082" unicode="&#x440;" horiz-adv-x="1372" 
d="M156 -328l0.000976562 1409h247v-180c96 135.333 218.333 203 367 203c64.667 0 127 -12.667 187 -38s113.667 -61.333 161 -108s85.166 -106.334 113.499 -179.001s42.5 -152.667 42.5 -240c0 -86.667 -14.167 -166 -42.5 -238s-66 -131.333 -113 -178
s-100.5 -82.667 -160.5 -108s-122.667 -38 -188 -38c-148 0 -270.333 63.667 -367 191v-496h-247zM397.001 539.001c0 -101.333 31.001 -184.333 93.001 -249s136.333 -97 223 -97c87.333 0 160.666 31.833 219.999 95.5s89 148.5 89 254.5c0 102 -30 185.167 -90 249.5
s-133 96.5 -219 96.5c-86.667 0 -161 -32.667 -223 -98s-93 -149.333 -93 -252z" />
    <glyph glyph-name="afii10083" unicode="&#x441;" horiz-adv-x="1159" 
d="M96 535l-0.000976562 4.00195c0 101.333 24 195.166 72 281.499s115.167 155.166 201.5 206.499s182.166 77 287.499 77c96.667 0 179.5 -16 248.5 -48s130.5 -78 184.5 -138l-154 -166c-42 44 -84.667 77.5 -128 100.5s-94.333 34.5 -153 34.5
c-88.667 0 -162.667 -33.5 -222 -100.5s-89 -148.167 -89 -243.5v-4c0 -98 30.5 -180.667 91.5 -248s138.5 -101 232.5 -101c54.667 0 104.334 11.667 149.001 35s88.334 57 131.001 101l150 -148c-58.667 -66 -122.5 -116.333 -191.5 -151s-152.833 -52 -251.5 -52
c-105.333 0 -200.833 25.167 -286.5 75.5s-152.5 118.333 -200.5 204s-72 179.167 -72 280.5z" />
    <glyph glyph-name="afii10084" unicode="&#x442;" horiz-adv-x="1026" 
d="M39 868v213h946v-213h-348v-868h-250v868h-348z" />
    <glyph glyph-name="afii10085" unicode="&#x443;" horiz-adv-x="1220" 
d="M53 1081l264.001 0.000976562l308 -802l280 802h258l-430 -1112c-43.333 -110.667 -91.833 -188.834 -145.5 -234.501s-123.834 -68.5 -210.501 -68.5c-89.333 0 -174.666 22 -255.999 66l84 184c49.333 -27.333 97.666 -41 144.999 -41c35.333 0 64.833 9.33301 88.5 28
s45.5 51 65.5 97z" />
    <glyph glyph-name="afii10086" unicode="&#x444;" horiz-adv-x="1820" 
d="M100 541c0 171.333 40.668 307.001 122.001 407.001s187.666 150 318.999 150c93.333 0 175 -36.333 245 -109v445h248v-445c70 72.667 152 109 246 109c131.333 0 237.5 -50 318.5 -150s121.5 -236.333 121.5 -409s-40.333 -308.334 -121 -407.001
s-186.334 -148 -317.001 -148c-100 0 -182.667 31.333 -248 94v-406h-248v406c-65.333 -62.667 -147.666 -94 -246.999 -94c-130.667 0 -236.5 49.5 -317.5 148.5s-121.5 235.167 -121.5 408.5zM350.001 537.001c0 -110 22 -195.333 66 -256s109.333 -91 196 -91
c61.333 0 119.333 24 174 72v549c-54.667 50.667 -112.667 76 -174 76c-84 0 -148.667 -31.333 -194 -94s-68 -148 -68 -256zM1034 262.001c54.667 -48 113.333 -71.999 176 -71.999c86 0 150.833 30.5 194.5 91.5s65.5 146.833 65.5 257.5
c0 107.333 -22.333 192.166 -67 254.499s-109 93.5 -193 93.5c-57.333 0 -116 -25.333 -176 -76v-549z" />
    <glyph glyph-name="afii10087" unicode="&#x445;" horiz-adv-x="1187" 
d="M61 0l398 549l-383 532h270l250 -356l250 356h264l-383 -526l399 -555h-270l-266 379l-264 -379h-265z" />
    <glyph glyph-name="afii10088" unicode="&#x446;" horiz-adv-x="1320" 
d="M156 0v1081h245v-868h467v868h246v-868h156l-33 -473h-207v260h-874z" />
    <glyph glyph-name="afii10089" unicode="&#x447;" horiz-adv-x="1216" 
d="M123 662l0.00195312 418.999h248v-360c0 -51.333 16.333 -95.666 49 -132.999s75.667 -56 129 -56c92 0 180 24 264 72v477h248v-1081h-248v403c-42.667 -22 -93.334 -41 -152.001 -57s-115 -24 -169 -24c-110.667 0 -199.834 29.667 -267.501 89s-101.5 143 -101.5 251z
" />
    <glyph glyph-name="afii10090" unicode="&#x448;" horiz-adv-x="1851" 
d="M156 0v1081h247v-868h400v868h246v-868h399v868h248v-1081h-1540z" />
    <glyph glyph-name="afii10091" unicode="&#x449;" horiz-adv-x="1900" 
d="M156 0v1081h247v-868h400v868h246v-868h399v868h248v-868h153l-30 -473h-207v260h-1456z" />
    <glyph glyph-name="afii10092" unicode="&#x44a;" horiz-adv-x="1320" 
d="M35 870v210.997h545v-379h249c62 0 118.833 -6.83301 170.5 -20.5s97.167 -34.167 136.5 -61.5s69.833 -63.166 91.5 -107.499s32.5 -95.166 32.5 -152.499c0 -111.333 -37 -199.166 -111 -263.499s-175 -96.5 -303 -96.5h-512v870h-299zM580 200.997h234.999
c62.667 0 110.834 13.5 144.501 40.5s50.5 66.5 50.5 118.5c0 48 -17.333 85 -52 111s-83.667 39 -147 39h-231v-309z" />
    <glyph glyph-name="afii10093" unicode="&#x44b;" horiz-adv-x="1628" 
d="M156 0v1081h247v-379h228c84 0 157.5 -11.833 220.5 -35.5s113.667 -61.667 152 -114s57.5 -116.5 57.5 -192.5c0 -111.333 -36.833 -199.166 -110.5 -263.499s-174.167 -96.5 -301.5 -96.5h-493zM403 200.999l213 0.000976562c62.667 0 111.167 13.667 145.5 41
s51.5 66.666 51.5 117.999c0 48 -17.5 85 -52.5 111s-84.5 39 -148.5 39h-209v-309zM1225 0v1081h248v-1081h-248z" />
    <glyph glyph-name="afii10094" unicode="&#x44c;" horiz-adv-x="1142" 
d="M156 0l-0.000976562 1081h247v-379h248c84 0 157.5 -11.833 220.5 -35.5s113.667 -61.667 152 -114s57.5 -116.5 57.5 -192.5c0 -111.333 -36.667 -199.166 -110 -263.499s-173.666 -96.5 -300.999 -96.5h-514zM402.999 200.999l234 0.000976562
c62.667 0 111.167 13.667 145.5 41s51.5 66.666 51.5 117.999c0 48 -17.5 85 -52.5 111s-84.5 39 -148.5 39h-230v-309z" />
    <glyph glyph-name="afii10095" unicode="&#x44d;" horiz-adv-x="1159" 
d="M55 176l148.003 146.001c44 -45.333 89 -80 135 -104s97.333 -36 154 -36c80.667 0 150 25.5 208 76.5s95 115.833 111 194.5h-424v178h422c-14.667 75.333 -50.334 137.833 -107.001 187.5s-123.334 74.5 -200.001 74.5c-61.333 0 -115 -10.667 -161 -32
s-90 -53 -132 -95l-133 154c116 121.333 258.667 182 428 182c106 0 202 -25.667 288 -77s152.667 -120 200 -206s71 -180 71 -282s-24.167 -196 -72.5 -282s-115.5 -154.167 -201.5 -204.5s-181 -75.5 -285 -75.5c-100.667 0 -186.334 17.167 -257.001 51.5
s-134.667 84.166 -192 149.499z" />
    <glyph glyph-name="afii10096" unicode="&#x44e;" horiz-adv-x="1755" 
d="M156 0l-0.00195312 1081h245v-438h187c22 133.333 81 243.166 177 329.499s214.333 129.5 355 129.5c106 0 200.333 -25.333 283 -76s146 -118.5 190 -203.5s66 -179.5 66 -283.5c0 -102.667 -22.167 -196.667 -66.5 -282s-108.166 -153.666 -191.499 -204.999
s-178.333 -77 -285 -77c-141.333 0 -259.666 43.333 -354.999 130s-153 197.667 -173 333h-187v-438h-245zM824.998 539c0 -98.667 26.668 -181.502 80.001 -248.502s125 -100.5 215 -100.5c92.667 0 164.667 33.167 216 99.5s77 149.5 77 249.5
c0 98.667 -27 181.334 -81 248.001s-126 100 -216 100c-92.667 0 -164.334 -32.667 -215.001 -98s-76 -148.666 -76 -249.999z" />
    <glyph glyph-name="afii10097" unicode="&#x44f;" horiz-adv-x="1228" 
d="M57 0l299.001 406c-76.667 23.333 -137.834 62.5 -183.501 117.5s-68.5 123.5 -68.5 205.5c0 106.667 37.5 192 112.5 256s179.5 96 313.5 96h543v-1081h-248v365h-221l-256 -365h-291zM352.001 717c0 -51.333 19.5 -91.833 58.5 -121.5s90.5 -44.5 154.5 -44.5h260v330
h-262c-65.333 0 -116.833 -14.667 -154.5 -44s-56.5 -69.333 -56.5 -120z" />
    <glyph glyph-name="afii10071" unicode="&#x451;" horiz-adv-x="1236" 
d="M96 541c0 102.667 22.3359 196.83 67.0029 282.497s107.667 153.834 189 204.501s172.333 76 273 76c67.333 0 129.333 -10.167 186 -30.5s105.167 -48.5 145.5 -84.5s74.666 -78.5 102.999 -127.5s49.333 -102.167 63 -159.5s20.5 -117.333 20.5 -180
c0 -30 -1.33301 -53 -4 -69h-795c13.333 -86.667 48.166 -154.167 104.499 -202.5s125.166 -72.5 206.499 -72.5c58.667 0 111 10.5 157 31.5s91.333 53.5 136 97.5l146 -129c-112 -135.333 -259.667 -203 -443 -203c-104 0 -198 23.333 -282 70
s-150.5 113.334 -199.5 200.001s-73.5 185.334 -73.5 296.001zM287.003 1219v241h252v-241h-252zM342.003 615.996l555.002 -0.000976562c-8.66699 84 -36.834 152.5 -84.501 205.5s-110.834 79.5 -189.501 79.5c-74.667 0 -137.167 -26.167 -187.5 -78.5
s-81.5 -121.166 -93.5 -206.499zM694.005 1219v241h252v-241h-252z" />
    <glyph glyph-name="afii10099" unicode="&#x452;" horiz-adv-x="1269" 
d="M6 1145l0.000976562 180.001h148v170h247v-170h369v-180h-369v-291c42 59.333 89.833 106.333 143.5 141s119.167 52 196.5 52c121.333 0 216.5 -37.667 285.5 -113s103.5 -176.333 103.5 -303v-236c0 -126.667 -36.167 -227.167 -108.5 -301.5
s-169.166 -111.5 -290.499 -111.5c-34.667 0 -67.334 2.33301 -98.001 7s-51.334 8.5 -62.001 11.5s-29 8.83301 -55 17.5l43 195c26 -10.667 55.333 -16 88 -16c69.333 0 126 24.167 170 72.5s66 113.5 66 195.5v92c0 84 -20.5 149 -61.5 195s-98.5 69 -172.5 69
c-73.333 0 -133 -24.333 -179 -73s-69 -114.334 -69 -197.001v-551h-247v1145h-148z" />
    <glyph glyph-name="afii10100" unicode="&#x453;" horiz-adv-x="962" 
d="M156 0v1081h766v-213h-519v-868h-247zM369 1219l217 335l225 -100l-250 -235h-192z" />
    <glyph glyph-name="afii10101" unicode="&#x454;" horiz-adv-x="1175" 
d="M96 537c0 102 23.666 195.999 70.999 281.999s114 154.667 200 206s182 77 288 77c169.333 0 312 -60.667 428 -182l-133 -154c-42 42 -86 73.667 -132 95s-99.667 32 -161 32c-76.667 0 -143.334 -24.833 -200.001 -74.5s-93 -112.167 -109 -187.5h424v-178h-426
c16.667 -78.667 54.334 -143.5 113.001 -194.5s128.334 -76.5 209.001 -76.5c56.667 0 107.834 12 153.501 36s90.5 58.667 134.5 104l148 -146c-57.333 -65.333 -121.333 -115.166 -192 -149.499s-156.334 -51.5 -257.001 -51.5c-104 0 -199 25.167 -285 75.5
s-153.167 118.5 -201.5 204.5s-72.5 180 -72.5 282z" />
    <glyph glyph-name="afii10102" unicode="&#x455;" 
d="M68 141l110.002 168c118 -88.667 236 -133 354 -133c52.667 0 93.834 10.667 123.501 32s44.5 51 44.5 89c0 15.333 -3.83301 29.166 -11.5 41.499s-17.667 22.833 -30 31.5s-28 17.167 -47 25.5s-38.167 15.5 -57.5 21.5l-66 20
c-4.66699 1.33301 -8.33398 2.33301 -11.001 3l-18 6c-38.667 11.333 -71.334 21.833 -98.001 31.5s-56.334 23.667 -89.001 42s-59 38 -79 59s-37 48 -51 81s-21 69.833 -21 110.5c0 100 36.5 180 109.5 240s164.833 90 275.5 90c66.667 0 135 -10.833 205 -32.5
s134 -51.834 192 -90.501l-98 -176c-112 68 -213.667 102 -305 102c-47.333 0 -84.5 -10.167 -111.5 -30.5s-40.5 -47.5 -40.5 -81.5c0 -12 2.33301 -23.167 7 -33.5s13.167 -20 25.5 -29s23.5 -16.667 33.5 -23s25.833 -13.666 47.5 -21.999l50.5 -19
c12 -4.33301 31.667 -10.833 59 -19.5c2 -0.666992 5.5 -1.66699 10.5 -3s8.5 -2.33301 10.5 -3c37.333 -11.333 69.5 -22.333 96.5 -33s56.667 -25.167 89 -43.5s58.5 -38 78.5 -59s37 -47.5 51 -79.5s21 -67 21 -105c0 -109.333 -37.5 -193.166 -112.5 -251.499
s-171.5 -87.5 -289.5 -87.5c-78.667 0 -158.167 13.833 -238.5 41.5s-153.5 67.5 -219.5 119.5z" />
    <glyph glyph-name="afii10103" unicode="&#x456;" horiz-adv-x="585" 
d="M160 1247v236h266v-236h-266zM170 0v1081h248v-1081h-248z" />
    <glyph glyph-name="afii10104" unicode="&#x457;" horiz-adv-x="585" 
d="M-35 1219v241h252v-241h-252zM170 0v1081h248v-1081h-248zM373 1219v241h252v-241h-252z" />
    <glyph glyph-name="afii10105" unicode="&#x458;" horiz-adv-x="585" 
d="M-16 -125c24.667 -4 47.666 -6 68.999 -6c78 0 117 43.667 117 131v1081h248v-1095c0 -213.333 -105.333 -320 -316 -320c-35.333 0 -74.666 3.33301 -117.999 10v199zM159.999 1247v236h266v-236h-266z" />
    <glyph glyph-name="afii10106" unicode="&#x459;" horiz-adv-x="1859" 
d="M2 2l17.9971 203c21.333 -5.33301 45.333 -8 72 -8c24 0 44.167 3.16699 60.5 9.5s33.333 19.5 51 39.5s32 50 43 90s21 92 30 156s15.667 145 20 243s6.5 213.333 6.5 346h817v-379h248c84 0 157.5 -11.833 220.5 -35.5s113.667 -61.667 152 -114
s57.5 -116.5 57.5 -192.5c0 -111.333 -36.833 -199.166 -110.5 -263.499s-174.167 -96.5 -301.5 -96.5h-514v868h-337c0 -110.667 -3.16699 -209.167 -9.5 -295.5s-14.833 -160.333 -25.5 -222s-25 -114.334 -43 -158.001s-37 -78.667 -57 -105s-44.167 -47 -72.5 -62
s-56.166 -25 -83.499 -30s-59.666 -7.5 -96.999 -7.5c-45.333 0 -93.666 4.66699 -144.999 14zM1120 201h234c62.667 0 111 13.5 145 40.5s51 66.5 51 118.5c0 48 -17.5 85 -52.5 111s-84.167 39 -147.5 39h-230v-309z" />
    <glyph glyph-name="afii10107" unicode="&#x45a;" horiz-adv-x="1865" 
d="M154 0v1081h247v-391h478v391h247v-391h250c83.333 0 156.333 -11.5 219 -34.5s113.167 -60.5 151.5 -112.5s57.5 -116.333 57.5 -193c0 -110 -36.5 -195.833 -109.5 -257.5s-173.5 -92.5 -301.5 -92.5h-514v496h-478v-496h-247zM1126 201h235.999
c129.333 0 194 50.333 194 151c0 46.667 -17.167 82.667 -51.5 108s-83.166 38 -146.499 38h-232v-297z" />
    <glyph glyph-name="afii10108" unicode="&#x45b;" horiz-adv-x="1269" 
d="M6 1145l-0.00195312 180h148v170h247v-170h369v-180h-369v-289c87.333 127.333 200 191 338 191c120.667 0 215.334 -37.5 284.001 -112.5s103 -176.167 103 -303.5v-631h-247v557c0 84 -20.333 149 -61 195s-97.667 69 -171 69s-132.666 -24 -177.999 -72
s-68 -113.333 -68 -196v-553h-247v1145h-148z" />
    <glyph glyph-name="afii10109" unicode="&#x45c;" horiz-adv-x="1214" 
d="M156 0v1081h245v-518l471 518h291l-420 -454l455 -627h-293l-327 446l-177 -186v-260h-245zM494 1219l217 335l225 -100l-250 -235h-192z" />
    <glyph glyph-name="afii10110" unicode="&#x45e;" horiz-adv-x="1220" 
d="M53 1081l264.001 0.000976562l308 -802l280 802h258l-430 -1112c-43.333 -110.667 -91.833 -188.834 -145.5 -234.501s-123.834 -68.5 -210.501 -68.5c-89.333 0 -174.666 22 -255.999 66l84 184c49.333 -27.333 97.666 -41 144.999 -41c35.333 0 64.833 9.33301 88.5 28
s45.5 51 65.5 97zM301.001 1491l151.999 29.001c29.333 -93.333 86 -140 170 -140s140.667 46.667 170 140l149 -29c-13.333 -88 -48.333 -157.5 -105 -208.5s-128 -76.5 -214 -76.5c-86.667 0 -158.667 25.667 -216 77s-92.666 120.666 -105.999 207.999z" />
    <glyph glyph-name="afii10193" unicode="&#x45f;" horiz-adv-x="1275" 
d="M156 0v1081h245v-868h473v868h246v-1081h-360v-260h-236v260h-368z" />
    <glyph glyph-name="afii10050" unicode="&#x490;" horiz-adv-x="1216" 
d="M184 0v1434h719v307h211l35 -535h-715v-1206h-250z" />
    <glyph glyph-name="afii10098" unicode="&#x491;" horiz-adv-x="962" 
d="M156 0v1081h528v260h207l31 -473h-519v-868h-247z" />
    <glyph glyph-name="uni2000" unicode="&#x2000;" horiz-adv-x="944" 
 />
    <glyph glyph-name="uni2001" unicode="&#x2001;" horiz-adv-x="1888" 
 />
    <glyph glyph-name="uni2002" unicode="&#x2002;" horiz-adv-x="944" 
 />
    <glyph glyph-name="uni2003" unicode="&#x2003;" horiz-adv-x="1888" 
 />
    <glyph glyph-name="uni2004" unicode="&#x2004;" horiz-adv-x="629" 
 />
    <glyph glyph-name="uni2005" unicode="&#x2005;" horiz-adv-x="472" 
 />
    <glyph glyph-name="uni2006" unicode="&#x2006;" horiz-adv-x="314" 
 />
    <glyph glyph-name="uni2007" unicode="&#x2007;" horiz-adv-x="314" 
 />
    <glyph glyph-name="uni2008" unicode="&#x2008;" horiz-adv-x="236" 
 />
    <glyph glyph-name="uni2009" unicode="&#x2009;" horiz-adv-x="377" 
 />
    <glyph glyph-name="uni200A" unicode="&#x200a;" horiz-adv-x="104" 
 />
    <glyph glyph-name="uni2010" unicode="&#x2010;" horiz-adv-x="835" 
d="M115 506v244h606v-244h-606z" />
    <glyph glyph-name="uni2011" unicode="&#x2011;" horiz-adv-x="835" 
d="M115 506v244h606v-244h-606z" />
    <glyph glyph-name="figuredash" unicode="&#x2012;" horiz-adv-x="835" 
d="M115 506v244h606v-244h-606z" />
    <glyph glyph-name="endash" unicode="&#x2013;" horiz-adv-x="1081" 
d="M115 510v235h852v-235h-852z" />
    <glyph glyph-name="emdash" unicode="&#x2014;" horiz-adv-x="1839" 
d="M115 510v235h1609v-235h-1609z" />
    <glyph glyph-name="quoteleft" unicode="&#x2018;" horiz-adv-x="550" 
d="M129 864v240.002c0 111.333 26 193.833 78 247.5s131 84.5 237 92.5l27 -107c-117.333 -20 -176 -76 -176 -168c0 -2.66699 0.333008 -6.33398 1 -11.001s1 -8.33398 1 -11.001h104v-283h-272z" />
    <glyph glyph-name="quoteright" unicode="&#x2019;" horiz-adv-x="550" 
d="M80 961c117.333 20 176 76.333 176 169c0 2.66699 -0.333008 6.5 -1 11.5s-1 8.83301 -1 11.5h-104v281h272v-240c0 -110.667 -26.167 -193 -78.5 -247s-131.5 -85 -237.5 -93z" />
    <glyph glyph-name="quotesinglbase" unicode="&#x201a;" horiz-adv-x="550" 
d="M70 -193c126 25.333 184 89.667 174 193h-105v281h273v-238c0 -110.667 -26.167 -193 -78.5 -247s-131.5 -85 -237.5 -93z" />
    <glyph glyph-name="quotedblleft" unicode="&#x201c;" horiz-adv-x="1026" 
d="M129 864v240.002c0 111.333 26 193.833 78 247.5s131 84.5 237 92.5l27 -107c-117.333 -20 -176 -76 -176 -168c0 -2.66699 0.333008 -6.33398 1 -11.001s1 -8.33398 1 -11.001h104v-283h-272zM604 864.002v240c0 110.667 26.167 193 78.5 247s131.5 85 237.5 93l26 -107
c-117.333 -20 -176 -77.333 -176 -172v-18h107v-283h-273z" />
    <glyph glyph-name="quotedblright" unicode="&#x201d;" horiz-adv-x="1026" 
d="M80 961c117.333 20 176 76.333 176 169c0 2.66699 -0.333008 6.5 -1 11.5s-1 8.83301 -1 11.5h-104v281h272v-240c0 -110.667 -26.167 -193 -78.5 -247s-131.5 -85 -237.5 -93zM555 961c117.333 20 176 76.333 176 169c0 2.66699 -0.333008 6.5 -1 11.5
s-1 8.83301 -1 11.5h-104v281h272v-240c0 -111.333 -26 -193.833 -78 -247.5s-131 -84.5 -237 -92.5z" />
    <glyph glyph-name="quotedblbase" unicode="&#x201e;" horiz-adv-x="1026" 
d="M70 -193c117.333 23.333 176 80 176 170c0 2.66699 -0.333008 6.5 -1 11.5s-1 8.83301 -1 11.5h-105v281h273v-238c0 -110.667 -26.167 -193 -78.5 -247s-131.5 -85 -237.5 -93zM545 -193c117.333 23.333 176 80 176 170c0 2.66699 -0.333008 6.5 -1 11.5
s-1 8.83301 -1 11.5h-105v281h273v-238c0 -110.667 -26.167 -193 -78.5 -247s-131.5 -85 -237.5 -93z" />
    <glyph glyph-name="ellipsis" unicode="&#x2026;" horiz-adv-x="1622" 
d="M139 0v274h267v-274h-267zM678 0v274h266v-274h-266zM1217 0v274h266v-274h-266z" />
    <glyph glyph-name="uni202F" unicode="&#x202f;" horiz-adv-x="377" 
 />
    <glyph glyph-name="guilsinglleft" unicode="&#x2039;" horiz-adv-x="724" 
d="M90 532v17l340 450l188 -96l-270 -360l270 -363l-188 -96z" />
    <glyph glyph-name="guilsinglright" unicode="&#x203a;" horiz-adv-x="724" 
d="M109 178l270 361l-270 362l188 98l338 -450v-17l-338 -448z" />
    <glyph glyph-name="uni205F" unicode="&#x205f;" horiz-adv-x="472" 
 />
    <glyph glyph-name="Euro" unicode="&#x20ac;" horiz-adv-x="1474" 
d="M106 461l0.000976562 174h158c-1.33301 18 -2 45.333 -2 82c0 42 1.33301 72.667 4 92h-160v174h193c42 142.667 114.333 257.5 217 344.5s224.334 130.5 365.001 130.5c60.667 0 116.334 -6.5 167.001 -19.5s96 -32.167 136 -57.5s75.333 -53.333 106 -84
s60.667 -67 90 -109l-190 -141c-46.667 64 -93.834 111 -141.501 141s-105.834 45 -174.501 45c-71.333 0 -134.5 -22.167 -189.5 -66.5s-96.833 -105.5 -125.5 -183.5h440v-174h-479c-2.66699 -36 -4 -66.667 -4 -92c0 -18.667 1.33301 -46 4 -82h479v-174h-442
c28 -81.333 71 -145 129 -191s126.333 -69 205 -69c44 0 84.5 8 121.5 24s69.667 37.167 98 63.5s59.5 61.833 93.5 106.5l180 -131c-42 -60.667 -85 -111.167 -129 -151.5s-97.333 -73.333 -160 -99s-131.334 -38.5 -206.001 -38.5c-148.667 0 -275.167 44 -379.5 132
s-176.5 206 -216.5 354h-187z" />
    <glyph glyph-name="trademark" unicode="&#x2122;" horiz-adv-x="1413" 
d="M53 1323v111h510v-111h-194v-520h-121v520h-195zM698 803v631h129l191 -299l190 299h125v-631h-116v448l-195 -303h-12l-195 303v-448h-117z" />
    <glyph glyph-name="uniE000" unicode="&#xe000;" horiz-adv-x="1085" 
d="M0 0v1085h1085v-1085h-1085z" />
    </font>
</defs>
</svg>
